<svg width="896" height="397" viewBox="0 0 896 397" fill="none" xmlns="http://www.w3.org/2000/svg">
<path fill-rule="evenodd" clip-rule="evenodd" d="M107.062 1.247C105.274 1.82 103.812 2.674 103.812 3.145C103.812 3.615 103.206 4 102.465 4C101.724 4 100.08 4.9 98.8123 6C97.5443 7.1 95.9003 8 95.1593 8C94.4183 8 93.8123 8.45 93.8123 9C93.8123 9.55 93.1693 10 92.3833 10C91.5983 10 90.3603 10.563 89.6333 11.25C88.9073 11.938 86.3183 13.85 83.8803 15.5C76.4203 20.55 57.7383 38.294 53.8733 44C52.5693 45.925 51.0093 47.95 50.4073 48.5C49.8053 49.05 48.0173 51.233 46.4343 53.351C44.1963 56.346 43.3413 56.902 42.5893 55.851C41.8463 54.812 41.7473 54.889 42.1623 56.186C42.4583 57.114 41.8253 58.985 40.7563 60.344C39.6873 61.703 38.8123 63.123 38.8123 63.498C38.8123 63.873 36.1913 68.527 32.9883 73.84C26.9823 83.801 22.9733 91.952 18.8033 102.682C17.4823 106.082 16.0483 108.646 15.6183 108.38C15.1873 108.114 15.1033 108.594 15.4303 109.448C15.7583 110.302 15.5763 111 15.0263 111C14.4763 111 13.5333 113.588 12.9323 116.75C10.6703 128.634 8.71328 136.491 7.32028 139.284C6.52928 140.87 5.15028 147.868 4.25628 154.834C3.36328 161.8 2.19128 168.331 1.65228 169.347C-0.623721 173.643 -0.512714 219.762 1.76529 216.076C2.17729 215.409 2.82728 218.831 3.21028 223.682C4.20728 236.327 4.72528 239.929 6.27928 245C7.03728 247.475 8.40028 252.425 9.30728 256C12.2763 267.708 18.8953 286.317 23.5353 296C36.2023 322.441 51.1773 342.542 69.7883 358.09C73.3503 361.066 76.7823 363.95 77.4153 364.5C78.0493 365.05 79.5743 366.175 80.8053 367C82.0363 367.825 84.0753 369.288 85.3353 370.25C86.5963 371.213 88.1193 372 88.7203 372C89.3203 372 89.8123 372.406 89.8123 372.902C89.8123 373.398 91.0503 374.316 92.5623 374.941C94.0743 375.566 98.6653 377.86 102.763 380.038C106.861 382.217 110.686 384.003 111.263 384.006C111.84 384.01 113.519 384.642 114.995 385.412C116.47 386.182 119.17 387.135 120.995 387.531C122.819 387.927 124.556 388.633 124.855 389.099C125.153 389.566 128.641 390.249 132.605 390.617C136.569 390.986 139.812 391.56 139.812 391.894C139.812 392.766 141.676 392.876 168.562 393.598C185.451 394.051 192.821 394.59 192.842 395.374C192.917 398.151 194.617 392.974 195.239 388.077C195.617 385.094 196.33 381.901 196.822 380.981C198.222 378.365 201.262 350.178 201.296 339.5L201.312 334.5L175.562 334.233C159.538 334.067 149.812 333.595 149.812 332.983C149.812 332.442 149.335 332 148.753 332C148.171 332 148.032 332.562 148.445 333.25C149.023 334.212 148.864 334.237 147.754 333.358C146.4 332.286 140.205 331.165 135.003 331.051C133.733 331.023 132.937 330.606 133.235 330.125C133.532 329.644 132.06 328.975 129.963 328.64C126.423 328.074 114.944 322.654 113.812 321.014C113.537 320.616 111.722 319.772 109.778 319.139C107.835 318.506 105.615 317.115 104.846 316.047C104.077 314.98 103.08 314.335 102.63 314.613C101.891 315.069 101.407 313.627 101.682 311.786C101.74 311.393 101.045 311.357 100.136 311.706C99.0283 312.131 98.7223 311.955 99.2073 311.17C99.6293 310.486 99.3403 310 98.5103 310C96.6123 310 88.7013 302.486 85.3513 297.5C83.8723 295.3 82.1333 293.48 81.4873 293.455C80.8413 293.43 80.3973 292.95 80.5003 292.39C80.6043 291.829 79.3393 289.825 77.6893 287.935C74.3333 284.091 69.8123 275.854 69.8123 273.583C69.8123 272.767 69.2033 271.74 68.4593 271.3C67.7163 270.86 65.8653 267.35 64.3473 263.5C62.8293 259.65 61.2103 256.032 60.7503 255.459C60.2903 254.887 59.6493 252.912 59.3253 251.071C59.0003 249.231 58.3573 246.999 57.8963 246.112C56.4983 243.427 53.7533 228.316 54.3713 226.707C54.6893 225.879 54.3983 224.862 53.7263 224.447C52.8803 223.924 52.7503 224.124 53.3043 225.095C53.9663 226.256 53.8633 226.274 52.7093 225.2C51.5723 224.143 51.3123 218.254 51.3123 193.629C51.3123 166.97 51.5073 163.163 52.9433 161.726C53.8453 160.824 54.6053 158.396 54.6423 156.297C54.7043 152.722 55.9313 146.334 58.8673 134.291C59.5843 131.35 60.5683 129.349 61.1293 129.696C61.6743 130.033 61.8413 129.856 61.4993 129.302C61.1573 128.749 61.7623 126.559 62.8443 124.436C63.9273 122.314 64.8133 120.11 64.8133 119.539C64.8143 118.576 67.4723 114.941 71.2393 110.75C72.1043 109.787 72.4033 109 71.9033 109C71.4033 109 71.8633 107.2 72.9263 105C73.9893 102.8 75.2983 101 75.8353 101C76.3733 101 76.8123 100.277 76.8123 99.393C76.8123 98.426 77.3703 98 78.2133 98.324C79.1193 98.671 79.5213 98.268 79.3503 97.181C78.9963 94.934 82.6813 89.801 84.0433 90.643C84.6793 91.036 84.8323 90.841 84.4153 90.167C84.0273 89.54 84.6333 88.035 85.7613 86.824C86.8893 85.614 87.8123 84.258 87.8123 83.811C87.8123 83.365 88.4623 83 89.2553 83C90.0493 83 91.4823 81.674 92.4393 80.054C93.3963 78.434 94.4993 77.307 94.8913 77.549C95.2823 77.791 95.8603 77.316 96.1763 76.494C96.4913 75.672 97.4653 75 98.3403 75C99.2143 75 99.6723 74.582 99.3563 74.072C99.0413 73.562 99.6963 72.854 100.812 72.5C101.928 72.146 102.591 71.452 102.286 70.957C101.98 70.463 102.87 69.772 104.264 69.423C105.658 69.073 106.57 68.417 106.291 67.965C106.011 67.514 106.689 66.856 107.797 66.505C108.905 66.153 109.812 65.48 109.812 65.01C109.812 64.54 111.387 63.635 113.312 63C115.237 62.365 116.812 61.466 116.812 61.002C116.812 60.538 118.162 59.862 119.812 59.5C121.462 59.138 122.812 58.447 122.812 57.966C122.812 57.484 124.387 56.795 126.312 56.434C128.237 56.073 129.812 55.405 129.812 54.95C129.812 54.495 131.837 53.819 134.312 53.448C136.787 53.077 138.812 52.435 138.812 52.022C138.812 50.392 150.022 49.951 190.562 49.988C213.8 50.009 232.84 49.908 232.874 49.763C232.908 49.618 233.136 47.475 233.381 45C235.201 26.581 235.848 19.214 236.431 10.25L237.098 0L173.705 0.102C132.746 0.168 109.162 0.573 107.062 1.247ZM238.064 10.5C238.075 12.7 238.28 13.482 238.519 12.238C238.758 10.994 238.749 9.194 238.499 8.238C238.249 7.282 238.053 8.3 238.064 10.5ZM143.625 52.683C144.346 52.972 145.209 52.936 145.541 52.604C145.873 52.272 145.283 52.036 144.229 52.079C143.064 52.127 142.827 52.364 143.625 52.683ZM612.562 87.662C613.25 87.94 614.375 87.94 615.062 87.662C615.75 87.385 615.187 87.158 613.812 87.158C612.437 87.158 611.875 87.385 612.562 87.662ZM167.062 89.748C175.174 89.916 188.449 89.916 196.562 89.748C204.675 89.58 198.037 89.442 181.812 89.442C165.587 89.442 158.949 89.58 167.062 89.748ZM146.081 90.693C147.054 90.947 148.404 90.93 149.081 90.656C149.758 90.382 148.962 90.175 147.312 90.195C145.662 90.215 145.108 90.439 146.081 90.693ZM151.812 91.88C151.812 92.364 149.076 92.958 145.733 93.199C142.389 93.441 139.351 94.114 138.983 94.694C138.614 95.274 136.85 96.066 135.062 96.454C133.274 96.842 131.812 97.565 131.812 98.06C131.812 98.556 130.687 99.244 129.312 99.589C127.937 99.934 126.812 100.535 126.812 100.923C126.812 102.067 120.142 104.911 119.186 104.174C118.706 103.804 118.625 103.903 119.008 104.396C119.913 105.561 114.731 111.068 113.466 110.286C112.937 109.959 112.807 110.183 113.179 110.784C113.55 111.385 113.235 112.242 112.479 112.689C111.723 113.135 110.54 114.573 109.85 115.885C108.845 117.799 108.406 117.997 107.628 116.885C106.83 115.743 106.739 115.764 107.109 117C107.355 117.825 106.759 119.4 105.783 120.5C100.827 126.088 91.2133 146.014 89.1383 155C88.3133 158.575 87.0023 163.315 86.2253 165.533C85.4483 167.752 84.8123 169.889 84.8123 170.283C84.8123 170.678 96.0893 171 109.871 171C127.234 171 134.729 170.675 134.276 169.942C133.377 168.487 138.202 161.434 141.56 159.297C143.074 158.334 144.537 157.3 144.812 157C145.087 156.7 146.662 155.564 148.312 154.477C151.132 152.619 153.414 152.481 186.287 152.192C205.523 152.023 221.328 151.798 221.409 151.692C221.75 151.247 222.778 137.111 222.794 132.643C222.809 128.741 223.107 127.899 224.312 128.362C225.493 128.815 225.812 128.078 225.812 124.903C225.812 122.684 225.346 119.998 224.777 118.934C224.118 117.703 224.082 116.364 224.677 115.25C225.192 114.287 225.94 108.438 226.341 102.25L227.069 91H189.441C168.449 91 151.812 91.389 151.812 91.88ZM290.423 92.573C290.087 93.448 289.812 137.102 289.812 189.582V285H339.167H388.523L389.252 278.25C390.679 265.032 390.769 257.91 389.498 258.673C388.845 259.064 388.987 258.536 389.812 257.5C390.637 256.464 390.781 255.935 390.131 256.324C389.482 256.714 388.668 256.575 388.322 256.016C387.947 255.409 382.26 255 374.194 255C363.66 255 360.859 254.725 361.445 253.75C361.955 252.901 361.654 252.94 360.504 253.872C359.504 254.683 358.812 254.81 358.812 254.182C358.812 253.488 354.916 253.164 347.562 253.247C339.145 253.342 337.571 253.539 341.312 254.03C344.615 254.463 341.317 254.739 331.593 254.843C318.879 254.979 316.953 254.796 317.45 253.5C317.835 252.497 319.564 251.953 322.669 251.858L327.312 251.716L323.312 251.108L319.312 250.5L318.686 243.5C318.342 239.65 318.005 229.644 317.936 221.265L317.812 206.029L348.062 205.765L378.312 205.5L378.812 189.652C379.266 175.266 378.876 170.771 377.476 174.244C377.074 175.242 376.954 175.243 376.891 174.25C376.83 173.285 370.024 172.948 347.062 172.773L317.312 172.547L345.812 172L374.312 171.453L347.184 171.227C325.607 171.046 319.824 170.719 318.916 169.626C318.132 168.68 317.806 161.351 317.873 146.109L317.97 123.967L351.57 124.099C390.039 124.251 387.8 124.81 387.827 115.059C387.838 111.101 388.122 109.932 388.812 111C389.345 111.825 389.811 112.05 389.846 111.5C389.882 110.95 390.049 106.9 390.217 102.5C390.386 98.1 390.701 93.825 390.918 93C391.264 91.684 385.165 91.468 341.173 91.241C296.101 91.008 290.971 91.142 290.423 92.573ZM609.559 185.963C609.695 237.958 610.031 281.472 610.305 282.661C610.782 284.722 611.298 284.814 621.485 284.661L632.165 284.5L633.01 281.5C633.474 279.85 633.888 276.416 633.928 273.868C633.996 269.636 634.188 269.285 636.157 269.791C639.013 270.524 644.878 276.084 644.109 277.329C643.776 277.868 644.01 277.996 644.629 277.613C645.599 277.014 650.308 279.264 651.812 281.046C652.786 282.199 661.468 286 663.128 286C664.054 286 664.812 286.418 664.812 286.929C664.812 287.44 666.274 287.834 668.062 287.804C669.85 287.774 674.676 287.838 678.788 287.946C683.381 288.066 686.403 287.728 686.622 287.071C686.818 286.482 688.034 286 689.324 286C690.614 286 692.322 285.347 693.12 284.549C693.918 283.752 695.75 282.803 697.191 282.441C698.633 282.079 699.812 281.334 699.812 280.785C699.812 280.235 700.586 280.083 701.532 280.446C702.477 280.809 702.951 280.806 702.585 280.44C701.648 279.502 711.987 271.487 713.812 271.736C714.705 271.859 714.822 271.723 714.099 271.4C713.233 271.013 713.518 269.883 715.099 267.441C717.266 264.096 718.812 263.058 718.812 264.95C718.812 265.473 718.028 266.339 717.07 266.875C716.112 267.411 715.696 268.217 716.145 268.667C717.165 269.687 719.312 266.184 719.312 263.5C719.312 262.368 719.887 261.619 720.636 261.775C721.365 261.926 721.678 261.592 721.333 261.033C720.987 260.474 722.259 257.201 724.16 253.759C726.06 250.316 727.925 246.016 728.303 244.202C728.9 241.347 729.203 241.079 730.563 242.202C731.962 243.358 731.989 243.269 730.815 241.382C729.993 240.063 729.806 238.556 730.318 237.382C731.444 234.802 731.544 234.367 731.687 231.441C731.756 230.034 732.149 229.092 732.562 229.348C733.969 230.222 732.114 198.726 730.396 192.564C729.486 189.3 728.977 186.014 729.265 185.262C729.553 184.511 729.344 184.171 728.801 184.507C728.257 184.843 727.812 184.596 727.812 183.958C727.812 183.32 725.586 178.394 722.866 173.012C720.146 167.629 718.22 162.925 718.586 162.559C718.952 162.194 718.365 162.215 717.282 162.606C716.198 162.998 715.643 162.954 716.046 162.508C716.45 162.062 716 161.057 715.046 160.275C714.093 159.492 713.869 159.133 714.551 159.478C715.383 159.898 715.583 159.567 715.161 158.468C714.708 157.286 714.328 157.166 713.791 158.034C713.257 158.897 712.418 158.606 710.812 157C709.002 155.19 708.837 154.588 709.944 153.84C711.068 153.081 711.044 152.945 709.812 153.077C706.611 153.419 705.61 152.968 706.194 151.448C706.521 150.594 706.409 150.131 705.945 150.418C705.481 150.704 701.243 149.003 696.528 146.636C686.607 141.657 687.179 141.803 677.062 141.671C668.076 141.553 662.765 142.115 663.385 143.119C663.625 143.506 662.019 144.127 659.816 144.499C657.614 144.871 655.812 145.586 655.812 146.088C655.812 146.59 654.981 147 653.965 147C652.332 147 650.977 147.861 646.062 152.021C645.375 152.603 644.812 152.776 644.812 152.406C644.812 152.035 642.574 154.155 639.839 157.116L634.866 162.5L634.839 127.25L634.812 92L625.062 91.826C619.7 91.73 613.962 91.601 612.312 91.538L609.312 91.425L609.559 185.963ZM636.231 110C636.231 120.725 636.378 125.112 636.558 119.75C636.737 114.388 636.737 105.612 636.558 100.25C636.378 94.888 636.231 99.275 636.231 110ZM747.898 187.175C747.959 239.521 748.238 282.946 748.517 283.675C748.9 284.671 751.914 284.996 760.669 284.985C767.073 284.976 772.879 284.609 773.572 284.169C774.568 283.537 774.831 267.164 774.825 206.093C774.821 163.592 774.568 128.414 774.263 127.921C773.958 127.427 773.598 119.698 773.463 110.745C773.329 101.792 772.875 93.912 772.456 93.233C771.921 92.367 768.138 92 759.741 92H747.788L747.898 187.175ZM638.084 102C638.084 104.475 638.279 105.487 638.518 104.25C638.756 103.013 638.756 100.987 638.518 99.75C638.279 98.513 638.084 99.525 638.084 102ZM287.279 161.5C287.279 191.75 287.406 204.269 287.561 189.321C287.717 174.372 287.717 149.622 287.561 134.321C287.406 119.019 287.279 131.25 287.279 161.5ZM366.562 127.662C367.25 127.94 368.375 127.94 369.062 127.662C369.75 127.385 369.187 127.158 367.812 127.158C366.437 127.158 365.875 127.385 366.562 127.662ZM373.081 127.693C374.054 127.947 375.404 127.93 376.081 127.656C376.758 127.382 375.962 127.175 374.312 127.195C372.662 127.215 372.108 127.439 373.081 127.693ZM223.97 139C223.97 140.375 224.197 140.938 224.474 140.25C224.752 139.563 224.752 138.438 224.474 137.75C224.197 137.063 223.97 137.625 223.97 139ZM544.625 137.683C545.346 137.972 546.209 137.936 546.541 137.604C546.873 137.272 546.283 137.036 545.229 137.079C544.064 137.127 543.827 137.364 544.625 137.683ZM674.574 137.707C675.818 137.946 677.618 137.937 678.574 137.687C679.53 137.437 678.512 137.241 676.312 137.252C674.112 137.263 673.33 137.468 674.574 137.707ZM462.363 141.917C461.995 142.513 460.916 143 459.964 143C459.013 143 456.47 143.9 454.312 145C449.928 147.235 448.369 147.526 449.358 145.926C449.723 145.336 449.074 145.444 447.917 146.167C446.759 146.89 445.812 147.948 445.812 148.518C445.812 150.083 441.821 153.266 441.773 151.74C441.751 151.058 441.134 151.85 440.4 153.5C439.667 155.15 437.846 157.625 436.354 159L433.641 161.5L433.977 153.906C434.288 146.847 434.178 146.348 432.406 146.814C431.134 147.148 430.738 146.93 431.215 146.158C431.738 145.31 429.265 145 421.993 145C413.954 145 411.795 145.317 410.684 146.66C409.554 148.027 409.312 159.279 409.312 210.561C409.312 244.794 409.649 272.596 410.062 272.343C410.475 272.089 410.812 274.834 410.812 278.441V285H422.872H434.933L434.622 243.595C434.452 220.822 434.643 202.394 435.047 202.644C435.451 202.895 435.503 201.705 435.162 200C434.319 195.786 437.447 184.685 440.365 181.537C441.658 180.142 442.481 179 442.193 179C440.793 179 449.442 171.88 451.455 171.375C452.73 171.055 457.566 170.952 462.204 171.147L470.635 171.5L475.222 176C477.745 178.475 479.59 181.086 479.322 181.802C479.054 182.518 479.224 182.864 479.699 182.57C480.454 182.103 482.344 187.694 482.885 192C482.989 192.825 483.353 213.975 483.693 239L484.312 284.5L497.183 284.781L510.055 285.062L509.356 253.281C508.669 222.016 509.753 196.929 511.824 196.185C512.306 196.012 512.461 195.249 512.169 194.489C511.878 193.729 512.341 190.72 513.199 187.803C514.994 181.7 521.79 173.251 523.87 174.536C524.765 175.089 524.972 174.859 524.556 173.774C523.774 171.738 527.48 171 538.496 171C543.799 171 546.703 171.367 546.319 171.989C545.969 172.555 546.37 172.723 547.26 172.382C549.39 171.564 549.226 173.659 547.062 174.92C546.1 175.481 545.784 175.953 546.362 175.97C546.939 175.986 547.877 175.535 548.445 174.967C549.873 173.539 553.055 174.925 552.381 176.681C552.081 177.464 552.245 177.85 552.747 177.54C554.094 176.707 557.672 182.217 559.303 187.636C560.435 191.398 560.755 201.603 560.86 237.339C560.933 262.072 561.225 282.914 561.51 283.654C562.264 285.62 583.666 285.558 586.371 283.582C588.216 282.233 588.326 280.485 588.6 248.082C588.795 225.014 588.552 214 587.85 214C586.324 214 586.479 198.278 588.01 197.767C588.918 197.465 588.872 196.56 587.821 194.023C587.059 192.183 586.395 188.387 586.346 185.589C586.297 182.79 585.994 180.05 585.673 179.5C585.351 178.95 584.784 177.229 584.413 175.675C582.871 169.234 576.277 157.764 571.079 152.482C568.111 149.467 565.037 147 564.248 147C563.458 147 562.812 146.55 562.812 146C562.812 145.45 562.25 144.997 561.562 144.994C560.875 144.99 558.962 144.253 557.312 143.355C553.822 141.456 538.469 140.246 536.565 141.72C535.876 142.253 533.062 143.289 530.312 144.021C527.562 144.753 525.033 145.767 524.693 146.274C524.352 146.781 522.947 147.264 521.57 147.348C520.018 147.442 519.249 147.975 519.547 148.75C519.981 149.882 518.645 150.468 516.488 150.094C516.034 150.015 515.924 150.372 516.243 150.888C516.906 151.96 510.164 159.289 507.634 160.247C506.711 160.596 505.811 162.078 505.634 163.54C505.323 166.106 505.225 166.05 502.812 161.932C500.001 157.133 492.704 149.327 488.588 146.716C482.559 142.891 463.875 139.472 462.363 141.917ZM833.062 141.675C831.825 141.93 830.812 142.518 830.812 142.982C830.812 143.445 828.899 144.144 826.562 144.535C824.225 144.925 821.981 145.752 821.577 146.372C821.063 147.162 820.838 147.11 820.827 146.198C820.819 145.479 819.737 146.057 818.409 147.49C816.727 149.305 815.851 149.695 815.488 148.791C815.159 147.971 814.941 148.138 814.891 149.25C814.843 150.307 814.02 151 812.812 151C811.712 151 810.812 151.436 810.812 151.969C810.812 152.501 811.523 152.664 812.392 152.331C813.4 151.944 813.129 152.628 811.642 154.223C810.36 155.598 808.349 157.024 807.171 157.394C804.994 158.077 801.55 163.768 802.441 165.21C802.71 165.644 802.503 166 801.982 166C801.461 166 801.055 166.563 801.081 167.25C801.21 170.737 800.721 173.062 799.956 172.589C799.486 172.298 799.313 173.172 799.573 174.53C799.833 175.889 799.633 177 799.129 177C798.626 177 798.397 178.575 798.622 180.5L799.031 184H809.47H819.909L821.321 180.75C822.098 178.963 822.751 178.261 822.773 179.191C822.826 181.468 824.347 182.297 824.589 180.181C825.008 176.524 825.452 175.198 827.101 172.682C828.044 171.242 829.418 170.295 830.154 170.578C830.89 170.86 832.077 170.385 832.793 169.523C833.911 168.176 833.827 168.041 832.203 168.57C831.163 168.909 831.77 168.204 833.551 167.002C836.462 165.038 837.831 164.852 847.077 165.159L857.364 165.5L861.555 169.38C866.674 174.12 868.493 178.851 869.576 190.25L870.408 199H847.61C833.078 199 824.812 199.363 824.812 200C824.812 200.55 824.024 201.015 823.062 201.034C822.1 201.053 819.512 201.937 817.312 203C815.112 204.063 812.942 204.947 812.491 204.966C812.039 204.985 810.99 205.679 810.16 206.509C809.33 207.339 808.242 207.766 807.743 207.457C807.243 207.149 807.06 207.482 807.335 208.199C807.627 208.961 806.594 210.051 804.848 210.824C803.205 211.551 801.962 212.451 802.086 212.823C802.21 213.195 801.37 214.442 800.219 215.593C799.067 216.745 797.507 219.782 796.75 222.343C795.994 224.905 795.086 227 794.732 227C794.379 227 794.304 228.125 794.567 229.5C794.83 230.875 794.605 232 794.067 232C793.529 232 793.294 233.072 793.545 234.383C793.795 235.693 793.508 237.07 792.906 237.442C791.607 238.245 791.413 250 792.699 250C793.186 250 794.139 253.037 794.815 256.75C796.058 263.575 799.747 270.853 804.737 276.324C807.796 279.679 817.893 286 820.193 286C821.083 286 821.812 286.45 821.812 287C821.812 287.606 826.145 288 832.812 288C839.479 288 843.812 287.606 843.812 287C843.812 286.45 844.68 286 845.741 286C846.801 286 848.344 285.325 849.169 284.5C849.994 283.675 851.102 283 851.63 283C852.159 283 854.328 281.435 856.452 279.523C858.575 277.611 860.624 276.036 861.005 276.023C861.387 276.01 862.491 274.659 863.459 273.02C864.499 271.26 865.492 270.482 865.886 271.12C866.256 271.718 867.39 270.384 868.432 268.125C869.466 265.885 870.56 264.04 870.864 264.026C871.168 264.012 871.526 267.938 871.66 272.75C872.028 285.995 871.111 285.111 884.14 284.782L895.312 284.5L895.199 275C895.031 260.853 894.989 195.039 895.146 191C895.22 189.075 894.944 185.475 894.533 183C894.015 179.892 894.093 178.964 894.782 180C895.639 181.286 895.784 181.251 895.797 179.75C895.805 178.787 895.137 178 894.312 178C893.007 178 892.311 176.173 892.694 173.75C892.759 173.338 892.31 173 891.695 173C891.071 173 890.809 172.118 891.102 170.999C891.432 169.738 891.231 169.241 890.561 169.655C889.879 170.076 889.7 169.538 890.061 168.155C890.372 166.968 890.294 166.202 889.889 166.452C889.484 166.703 887.928 164.97 886.431 162.601C884.934 160.233 881.96 156.476 879.823 154.252C877.686 152.028 876.233 149.912 876.594 149.551C876.955 149.19 876.399 149.221 875.358 149.621C873.878 150.189 873.601 149.993 874.087 148.725C874.526 147.582 874.281 147.266 873.261 147.658C872.328 148.016 871.784 147.552 871.733 146.357C871.688 145.304 871.436 145.041 871.15 145.75C870.583 147.155 868.157 147.445 867.645 146.168C866.51 143.335 841.05 140.027 833.062 141.675ZM697.319 143.989C696.969 144.555 697.37 144.723 698.26 144.382C699.992 143.717 700.309 143 698.871 143C698.353 143 697.655 143.445 697.319 143.989ZM166.562 155.662C167.25 155.94 168.375 155.94 169.062 155.662C169.75 155.385 169.187 155.158 167.812 155.158C166.437 155.158 165.875 155.385 166.562 155.662ZM173.625 155.683C174.346 155.972 175.209 155.936 175.541 155.604C175.873 155.272 175.283 155.036 174.229 155.079C173.064 155.127 172.827 155.364 173.625 155.683ZM183.081 155.693C184.054 155.947 185.404 155.93 186.081 155.656C186.758 155.382 185.962 155.175 184.312 155.195C182.662 155.215 182.108 155.439 183.081 155.693ZM194.099 155.74C197.281 155.939 202.231 155.937 205.099 155.736C207.966 155.535 205.362 155.372 199.312 155.374C193.262 155.376 190.916 155.541 194.099 155.74ZM1.09828 161.5C1.10628 164.25 1.30029 165.256 1.53029 163.736C1.75929 162.216 1.75328 159.966 1.51628 158.736C1.27928 157.506 1.09128 158.75 1.09828 161.5ZM579.812 162C579.812 162.55 580.262 163 580.812 163C581.362 163 581.812 162.55 581.812 162C581.812 161.45 581.362 161 580.812 161C580.262 161 579.812 161.45 579.812 162ZM52.9703 165C52.9703 166.375 53.1973 166.938 53.4743 166.25C53.7523 165.563 53.7523 164.438 53.4743 163.75C53.1973 163.063 52.9703 163.625 52.9703 165ZM840.562 168.662C841.25 168.94 842.375 168.94 843.062 168.662C843.75 168.385 843.187 168.158 841.812 168.158C840.437 168.158 839.875 168.385 840.562 168.662ZM847.625 168.683C848.346 168.972 849.209 168.936 849.541 168.604C849.873 168.272 849.283 168.036 848.229 168.079C847.064 168.127 846.827 168.364 847.625 168.683ZM688.207 173.25C689.168 174.213 690.421 175 690.99 175C691.56 175 691.802 175.583 691.529 176.295C691.233 177.066 691.838 177.652 693.022 177.741C695.502 177.928 698.122 181.19 696.565 182.153C695.972 182.519 696.571 182.972 697.895 183.159C700.542 183.534 703.983 189.391 703.024 191.89C702.696 192.744 702.903 193.062 703.534 192.672C704.511 192.068 705.511 195.565 706.103 201.655C706.218 202.839 706.636 203.609 707.033 203.364C708.467 202.477 709.054 208.358 708.609 219.153C708.36 225.215 707.685 230.469 707.109 230.835C706.534 231.201 705.725 233.06 705.31 234.967C704.52 238.608 702.886 242.08 701.477 243.112C701.017 243.448 700.635 244.123 700.627 244.612C700.619 245.1 700.207 245.387 699.712 245.25C699.217 245.112 698.812 245.479 698.812 246.065C698.812 246.65 697.437 248.286 695.757 249.7C694.077 251.114 692.929 252.862 693.206 253.584C693.762 255.032 690.422 256.495 688.821 255.506C688.266 255.163 687.812 255.584 687.812 256.441C687.812 258.28 685.826 258.582 685.782 256.75C685.765 256.056 685.298 256.279 684.732 257.25C684.171 258.212 682.835 259 681.762 259C680.69 259 679.812 259.45 679.812 260C679.812 260.583 676.479 261 671.812 261C667.412 261 663.812 260.59 663.812 260.088C663.812 259.586 662.012 258.872 659.812 258.5C657.612 258.128 655.812 257.387 655.812 256.853C655.812 256.319 655.415 256.127 654.93 256.427C653.626 257.233 648.681 253.021 649.457 251.765C649.859 251.114 649.649 250.983 648.923 251.432C648.264 251.839 647.036 251.601 646.195 250.903C644.021 249.099 640.762 242.398 641.605 241.463C641.994 241.032 641.79 240.978 641.153 241.343C639.18 242.471 635.815 233.792 634.81 224.982C634.292 220.438 634.101 216.341 634.387 215.878C634.673 215.415 634.917 211.871 634.929 208.003C634.942 204.134 635.328 201.201 635.789 201.486C636.249 201.77 636.401 201.145 636.127 200.096C635.319 197.007 642.951 182.35 644.779 183.479C645.271 183.784 645.999 183.506 646.397 182.862C646.849 182.131 646.688 181.959 645.967 182.405C643.887 183.69 644.756 181.956 647.438 179.471C648.882 178.133 650.457 177.281 650.938 177.578C651.419 177.875 651.812 177.39 651.812 176.5C651.812 175.61 652.262 175.16 652.812 175.5C653.362 175.84 653.812 175.593 653.812 174.952C653.812 174.311 654.464 174.036 655.261 174.342C656.202 174.703 656.526 174.418 656.185 173.529C655.451 171.616 658.157 171.281 673.385 171.399C684.415 171.484 686.732 171.774 688.207 173.25ZM459.062 174.689C460.024 174.941 461.6 174.941 462.562 174.689C463.524 174.438 462.737 174.232 460.812 174.232C458.887 174.232 458.1 174.438 459.062 174.689ZM539.081 174.693C540.054 174.947 541.404 174.93 542.081 174.656C542.758 174.382 541.962 174.175 540.312 174.195C538.662 174.215 538.108 174.439 539.081 174.693ZM52.1403 181.5C52.1453 185.35 52.3253 186.802 52.5423 184.728C52.7583 182.653 52.7553 179.503 52.5343 177.728C52.3133 175.952 52.1363 177.65 52.1403 181.5ZM446.083 176.947C446.163 178.006 446.768 178.57 447.517 178.283C449.23 177.625 449.163 176.349 447.378 175.664C446.433 175.301 445.992 175.738 446.083 176.947ZM556.522 186C556.81 187.1 557.218 188 557.429 188C557.639 188 557.812 187.1 557.812 186C557.812 184.9 557.404 184 556.906 184C556.407 184 556.235 184.9 556.522 186ZM698.365 184.915C698.043 185.436 698.206 186.125 698.727 186.447C699.248 186.769 699.937 186.606 700.259 186.085C700.581 185.564 700.418 184.875 699.897 184.553C699.376 184.231 698.687 184.394 698.365 184.915ZM514.376 189.293C514.752 190.279 515.311 190.834 515.619 190.526C515.927 190.219 515.62 189.412 514.936 188.733C513.948 187.753 513.834 187.868 514.376 189.293ZM52.1483 204C52.1483 208.125 52.3253 209.813 52.5403 207.75C52.7563 205.688 52.7563 202.313 52.5403 200.25C52.3253 198.188 52.1483 199.875 52.1483 204ZM734.891 199.583C734.939 200.748 735.176 200.985 735.495 200.188C735.784 199.466 735.748 198.603 735.416 198.271C735.084 197.939 734.848 198.529 734.891 199.583ZM436.891 200.583C436.939 201.748 437.176 201.985 437.495 201.188C437.784 200.466 437.748 199.603 437.416 199.271C437.084 198.939 436.848 199.529 436.891 200.583ZM588.064 207.5C588.075 209.7 588.28 210.482 588.519 209.238C588.758 207.994 588.749 206.194 588.499 205.238C588.249 204.282 588.053 205.3 588.064 207.5ZM319.046 207.567C319.72 208.242 369.001 208.145 369.678 207.468C369.935 207.21 358.52 207 344.312 207C330.104 207 318.734 207.255 319.046 207.567ZM85.6543 215.75C85.3933 218.63 85.8143 221.378 86.6043 221.956C87.0123 222.255 88.3753 226.059 89.6323 230.408C91.4763 236.789 91.6663 238.498 90.6153 239.253C89.6443 239.95 89.7353 240.054 90.9683 239.662C92.2153 239.265 93.3533 240.662 95.5783 245.317C97.2023 248.718 99.7353 253.273 101.206 255.44C102.677 257.607 103.656 259.964 103.382 260.678C103.108 261.392 103.276 261.869 103.755 261.738C104.235 261.607 107.948 264.875 112.007 269C116.067 273.125 120.439 277.175 121.723 278C123.007 278.825 124.568 279.986 125.193 280.579C126.506 281.828 131.511 284.657 134.062 285.592C135.024 285.945 135.812 286.595 135.812 287.037C135.812 287.479 137.274 288.158 139.062 288.546C140.85 288.934 142.586 289.682 142.922 290.208C143.257 290.734 146.283 291.414 149.646 291.719C153.01 292.024 155.521 292.662 155.228 293.137C154.934 293.611 162.258 293.947 171.503 293.882C181.431 293.812 187.084 293.451 185.312 293C183.394 292.512 186.684 292.194 194.431 292.118L206.55 292L207.681 283.182C208.303 278.333 208.844 272.595 208.882 270.432C208.933 267.58 209.16 267.029 209.707 268.427C210.748 271.083 211.811 268.258 210.808 265.5C210.408 264.4 210.413 262.6 210.819 261.5C211.772 258.915 214.332 232.186 213.688 231.543C213.419 231.274 199.949 230.988 183.755 230.908C154.086 230.762 147.174 230.106 148.162 227.532C148.45 226.78 148.09 225.937 147.362 225.658C146.423 225.297 146.203 225.781 146.604 227.325C147.08 229.154 146.63 228.961 143.78 226.116C141.915 224.255 140.294 222.076 140.176 221.274C139.9 219.392 138.812 218.29 138.812 219.892C138.812 220.566 138.34 220.826 137.763 220.47C137.038 220.022 137.053 219.414 137.812 218.5C138.615 217.533 138.586 216.979 137.706 216.435C136.943 215.963 136.764 216.114 137.217 216.845C138.34 218.664 137.007 218.195 134.812 216C132.925 214.113 131.479 214 109.312 214C87.6583 214 85.8003 214.137 85.6543 215.75ZM52.9703 219C52.9703 220.375 53.1973 220.938 53.4743 220.25C53.7523 219.563 53.7523 218.438 53.4743 217.75C53.1973 217.063 52.9703 217.625 52.9703 219ZM511.234 239C511.234 250.275 511.38 254.887 511.558 249.25C511.736 243.613 511.736 234.387 511.558 228.75C511.38 223.113 511.234 227.725 511.234 239ZM1.04428 226C1.04428 227.925 1.25028 228.713 1.50128 227.75C1.75328 226.787 1.75328 225.213 1.50128 224.25C1.25028 223.287 1.04428 224.075 1.04428 226ZM869.457 230.658C869.125 234.594 867.916 240.32 866.771 243.381C864.624 249.118 859.158 256.332 857.659 255.406C857.193 255.118 856.812 255.595 856.812 256.466C856.812 257.424 855.633 258.286 853.828 258.647C852.187 258.975 851.075 259.616 851.356 260.071C852.194 261.427 845.449 262.234 836.6 261.835C828.613 261.475 828.172 261.327 824.448 257.755C821.866 255.279 820.504 253.037 820.344 251.004C820.212 249.329 819.813 247.668 819.458 247.313C819.103 246.957 818.812 243.879 818.812 240.473C818.812 235.44 819.304 233.55 821.439 230.39C824.33 226.109 825.792 224.869 827.039 225.64C827.491 225.92 827.797 225.778 827.718 225.324C827.64 224.871 827.628 224.275 827.693 224C827.758 223.725 837.317 223.5 848.936 223.5H870.061L869.457 230.658ZM734.891 228.583C734.939 229.748 735.176 229.985 735.495 229.188C735.784 228.466 735.748 227.603 735.416 227.271C735.084 226.939 734.848 227.529 734.891 228.583ZM287.194 251.5C287.196 258.1 287.358 260.67 287.553 257.211C287.749 253.752 287.748 248.352 287.55 245.211C287.352 242.07 287.192 244.9 287.194 251.5ZM377.625 251.683C378.346 251.972 379.209 251.936 379.541 251.604C379.873 251.272 379.283 251.036 378.229 251.079C377.064 251.127 376.827 251.364 377.625 251.683ZM689.023 253.395C689.732 254.162 690.698 254.556 691.169 254.27C691.64 253.984 691.415 253.363 690.669 252.89C688.559 251.553 687.594 251.849 689.023 253.395ZM789.812 253C789.812 253.55 790.262 254 790.812 254C791.362 254 791.812 253.55 791.812 253C791.812 252.45 791.362 252 790.812 252C790.262 252 789.812 252.45 789.812 253ZM407.007 272.5C407.027 274.15 407.251 274.704 407.505 273.731C407.759 272.758 407.742 271.408 407.468 270.731C407.194 270.054 406.987 270.85 407.007 272.5ZM323.062 287.716C324.574 287.945 327.05 287.945 328.562 287.716C330.074 287.487 328.837 287.3 325.812 287.3C322.787 287.3 321.55 287.487 323.062 287.716ZM382.062 288.689C383.024 288.941 384.6 288.941 385.562 288.689C386.524 288.438 385.737 288.232 383.812 288.232C381.887 288.232 381.1 288.438 382.062 288.689ZM583.625 288.683C584.346 288.972 585.209 288.936 585.541 288.604C585.873 288.272 585.283 288.036 584.229 288.079C583.064 288.127 582.827 288.364 583.625 288.683ZM875.625 288.683C876.346 288.972 877.209 288.936 877.541 288.604C877.873 288.272 877.283 288.036 876.229 288.079C875.064 288.127 874.827 288.364 875.625 288.683ZM149.081 293.693C150.054 293.947 151.404 293.93 152.081 293.656C152.758 293.382 151.962 293.175 150.312 293.195C148.662 293.215 148.108 293.439 149.081 293.693ZM201.562 293.662C202.25 293.94 203.375 293.94 204.062 293.662C204.75 293.385 204.187 293.158 202.812 293.158C201.437 293.158 200.875 293.385 201.562 293.662ZM144.081 330.693C145.054 330.947 146.404 330.93 147.081 330.656C147.758 330.382 146.962 330.175 145.312 330.195C143.662 330.215 143.108 330.439 144.081 330.693ZM164.062 331.747C170.524 331.921 181.1 331.921 187.562 331.747C194.024 331.573 188.737 331.43 175.812 331.43C162.887 331.43 157.6 331.573 164.062 331.747ZM203.007 341.5C203.027 343.15 203.251 343.704 203.505 342.731C203.759 341.758 203.742 340.408 203.468 339.731C203.194 339.054 202.987 339.85 203.007 341.5ZM202.064 350.5C202.075 352.7 202.28 353.482 202.519 352.238C202.758 350.994 202.749 349.194 202.499 348.238C202.249 347.282 202.053 348.3 202.064 350.5ZM200.97 362C200.97 363.375 201.197 363.938 201.474 363.25C201.752 362.563 201.752 361.438 201.474 360.75C201.197 360.063 200.97 360.625 200.97 362ZM136.625 394.683C137.346 394.972 138.209 394.936 138.541 394.604C138.873 394.272 138.283 394.036 137.229 394.079C136.064 394.127 135.827 394.364 136.625 394.683Z" fill="white"/>
<path fill-rule="evenodd" clip-rule="evenodd" d="M620.562 87.737C623.45 87.939 628.174 87.939 631.062 87.737C633.95 87.535 631.587 87.37 625.812 87.37C620.037 87.37 617.674 87.535 620.562 87.737ZM755.601 87.741C759.06 87.937 764.46 87.936 767.601 87.738C770.742 87.54 767.912 87.38 761.312 87.382C754.712 87.384 752.142 87.546 755.601 87.741ZM609.419 91.582C608.463 94.074 608.689 94.266 610.476 92.479C611.625 91.33 613.054 90.998 615.101 91.408C616.729 91.733 621.825 92 626.424 92H634.786L635.05 127.25L635.313 162.5L635.813 126.25L636.312 89.999L623.169 90C612.107 90 609.93 90.25 609.419 91.582ZM748.312 91C747.913 91.645 751.949 92 759.694 92C768.128 92 771.92 92.366 772.456 93.233C772.875 93.912 773.329 101.839 773.465 110.85C773.601 119.861 773.959 127.481 774.262 127.783C774.564 128.086 774.812 119.708 774.812 109.167V90H761.871C754.322 90 748.673 90.417 748.312 91ZM289.045 188.25C289.174 241.738 289.398 273.35 289.543 258.5C290.225 188.899 290.236 91 289.562 91C289.149 91 288.917 134.762 289.045 188.25ZM287.148 100C287.148 104.125 287.325 105.813 287.54 103.75C287.756 101.688 287.756 98.313 287.54 96.25C287.325 94.188 287.148 95.875 287.148 100ZM390.112 103C390.112 106.025 390.299 107.263 390.528 105.75C390.757 104.237 390.757 101.763 390.528 100.25C390.299 98.737 390.112 99.975 390.112 103ZM609.065 190C608.941 240.325 609.114 282.526 609.45 283.781C610.048 286.01 610.321 286.055 621.687 285.781L633.312 285.5L633.508 282.5C633.691 279.705 633.654 279.671 632.962 282C632.234 284.451 632.008 284.503 621.516 284.661C615.629 284.749 610.705 284.749 610.575 284.661C610.445 284.572 610.102 242.65 609.815 191.5L609.291 98.5L609.065 190ZM387.827 114.816C387.819 117.739 387.346 121.002 386.777 122.066C385.911 123.684 386.075 124 387.777 124C389.59 124 389.81 123.371 389.797 118.25C389.788 115.088 389.345 111.825 388.812 111C388.119 109.927 387.838 111.015 387.827 114.816ZM326.812 124.847C326.812 125.312 337.049 125.689 349.562 125.684C363.479 125.678 370.371 125.383 367.312 124.925C360.337 123.879 326.812 123.814 326.812 124.847ZM467.574 137.707C468.818 137.946 470.618 137.937 471.574 137.687C472.53 137.437 471.512 137.241 469.312 137.252C467.112 137.263 466.33 137.468 467.574 137.707ZM463.812 139.907C463.812 140.407 466.174 141.012 469.062 141.254C483.555 142.466 495.723 149.325 500.863 159.182C503.192 163.647 505.393 165.392 504.262 161.875C503.842 160.569 503.493 158.938 503.488 158.25C503.483 157.563 502.892 157 502.175 157C501.458 157 499.846 155.2 498.592 153C497.321 150.77 495.759 149.207 495.062 149.469C493.917 149.898 493.36 148.74 493.718 146.676C493.797 146.222 493.397 146.138 492.829 146.489C491.7 147.187 488.565 144.58 489.459 143.687C489.762 143.384 489.019 143.395 487.809 143.711C486.547 144.041 485.277 143.752 484.833 143.035C484.408 142.346 481.979 141.548 479.436 141.261C476.893 140.974 474.812 140.348 474.812 139.87C474.812 139.391 472.337 139 469.312 139C466.287 139 463.812 139.408 463.812 139.907ZM537.812 140C537.812 140.55 540.287 141 543.312 141C546.337 141 548.812 140.55 548.812 140C548.812 139.45 546.337 139 543.312 139C540.287 139 537.812 139.45 537.812 140ZM670.925 139.446C671.694 140.215 679.722 140.423 680.451 139.694C680.833 139.312 678.745 139 675.812 139C672.879 139 670.68 139.201 670.925 139.446ZM840.421 139.824C840.141 140.277 842.14 140.749 844.862 140.873C847.794 141.007 849.812 140.671 849.812 140.049C849.812 138.819 841.17 138.611 840.421 139.824ZM827.625 140.683C828.346 140.972 829.209 140.936 829.541 140.604C829.873 140.272 829.283 140.036 828.229 140.079C827.064 140.127 826.827 140.364 827.625 140.683ZM456.062 141.706C454.825 141.944 453.812 142.558 453.812 143.07C453.812 143.581 453.192 144 452.434 144C451.677 144 450.497 144.675 449.812 145.5C448.109 147.551 449.641 147.381 454.312 145C456.47 143.9 459.013 143 459.964 143C460.916 143 461.972 142.55 462.312 142C462.932 140.997 460.366 140.877 456.062 141.706ZM529.062 141.706C527.825 141.944 526.812 142.509 526.812 142.961C526.812 143.413 525.776 144.043 524.509 144.361C523.242 144.679 520.88 146.29 519.259 147.942C517.638 149.593 515.858 150.957 515.303 150.972C514.747 150.988 513.666 152.012 512.9 153.25C512.133 154.488 510.788 156.622 509.909 157.993C509.031 159.365 511.327 157.452 515.012 153.743C518.697 150.035 522.409 147 523.262 147C524.114 147 524.812 146.622 524.812 146.16C524.812 145.698 527.308 144.721 530.359 143.989C533.409 143.257 536.136 142.285 536.418 141.829C536.939 140.985 533.134 140.921 529.062 141.706ZM552.812 141.669C553.637 141.949 555.73 142.814 557.463 143.59C559.196 144.365 561.109 145 561.713 145C562.318 145 562.812 145.45 562.812 146C562.812 146.55 563.458 147 564.248 147C565.037 147 568.112 149.468 571.081 152.485C576.337 157.825 581.745 167.169 584.402 175.5C585.302 178.322 585.698 178.819 585.745 177.188C585.836 174.05 582.827 164.738 581.321 163.496C580.651 162.944 579.792 161.511 579.411 160.312C579.03 159.112 576.04 155.35 572.765 151.952C569.491 148.553 566.812 145.4 566.812 144.945C566.812 144.49 566.292 143.797 565.657 143.405C564.942 142.962 564.774 143.13 565.217 143.845C566.213 145.459 564.951 145.241 560.312 143C558.112 141.937 555.187 141.088 553.812 141.113C552.408 141.138 551.969 141.382 552.812 141.669ZM663.812 141.906C663.812 142.405 662.866 142.565 661.71 142.263C660.553 141.961 659.272 142.255 658.863 142.917C658.454 143.579 656.517 144.206 654.558 144.31C651.837 144.455 651.239 144.795 652.026 145.75C653.21 147.186 655.812 147.434 655.812 146.111C655.812 145.623 657.5 144.907 659.562 144.522C661.625 144.136 663.762 143.454 664.312 143.006C664.862 142.558 666.437 141.985 667.812 141.732C669.922 141.344 669.806 141.251 667.062 141.136C665.274 141.061 663.812 141.408 663.812 141.906ZM683.927 141.394C684.265 141.762 685.594 142.266 686.881 142.513C692.144 143.527 704.287 150.544 709.583 155.632C712.655 158.584 715.614 161 716.157 161C716.701 161 716.852 161.293 716.494 161.651C716.136 162.009 716.475 162.797 717.248 163.401C719.795 165.393 727.636 182.381 729.995 191.019C731.979 198.28 732.307 201.802 732.274 215.5C732.239 230.504 732.016 233.232 730.515 237C730.186 237.825 729.245 240.854 728.424 243.731C727.002 248.713 720.895 260.694 718.457 263.283C717.827 263.952 716.037 266.207 714.479 268.293C712.92 270.379 709.32 273.87 706.479 276.051C703.637 278.232 700.827 280.408 700.235 280.886C699.643 281.364 698.089 282.095 696.782 282.51C695.475 282.924 693.73 283.939 692.905 284.764C691.572 286.097 691.678 286.179 693.859 285.497C695.208 285.075 696.537 284.402 696.812 284C697.087 283.598 698.325 282.954 699.562 282.567C700.799 282.181 701.812 281.446 701.812 280.933C701.812 280.42 702.508 280 703.359 280C705.049 280 711.301 274.015 716.812 267.122C718.737 264.714 720.988 262.013 721.814 261.12C723.481 259.318 728.812 247.894 728.812 246.125C728.812 245.506 729.503 245 730.347 245C731.572 245 731.666 244.596 730.812 243C730.204 241.863 730.144 241 730.674 241C733.386 241 734.761 202.798 732.402 193C732.07 191.625 731.605 188.991 731.368 187.146C730.916 183.627 729.866 181.657 729.736 184.083C729.694 184.863 729.078 183.925 728.367 182C727.405 179.398 727.36 178.13 728.193 177.058C729.031 175.978 729.018 175.793 728.14 176.319C726.84 177.098 723.484 171.339 724.387 169.879C724.686 169.395 724.325 169 723.587 169C722.201 169 718.552 163.644 718.149 161.018C718.023 160.203 717.444 159.377 716.86 159.183C716.277 158.988 716.035 158.449 716.322 157.984C716.609 157.519 716.318 156.813 715.674 156.415C714.969 155.979 714.77 156.123 715.174 156.776C715.543 157.373 715.455 158.103 714.979 158.397C714.503 158.691 713.52 157.822 712.794 156.466C712.068 155.11 711.033 154 710.494 154C709.955 154 707.984 152.425 706.115 150.5C704.245 148.575 702.062 147 701.264 147C699.598 147 699.29 145.341 700.859 144.818C701.435 144.626 700.034 144.42 697.745 144.36C695.457 144.3 693.251 143.71 692.843 143.049C692.434 142.389 690.123 141.596 687.706 141.287C685.289 140.978 683.589 141.026 683.927 141.394ZM828.562 141.716C827.049 141.945 825.812 142.52 825.812 142.993C825.812 143.466 825.024 144.094 824.062 144.388C823.1 144.682 824.111 144.673 826.31 144.369C828.508 144.065 830.533 143.46 830.81 143.024C831.086 142.588 832.212 142.007 833.312 141.732L835.312 141.232L833.312 141.266C832.212 141.284 830.075 141.487 828.562 141.716ZM854.812 141.824C855.637 142.349 858.9 143.35 862.062 144.048C865.224 144.747 867.812 145.697 867.812 146.159C867.812 146.622 868.487 147 869.312 147C871.847 147 870.973 145.257 868.072 144.529C866.565 144.151 865.069 143.415 864.747 142.894C864.425 142.373 861.72 141.705 858.737 141.409C855.099 141.048 853.806 141.185 854.812 141.824ZM409.812 146.059C409.812 146.641 410.262 146.84 410.812 146.5C411.362 146.16 411.812 145.684 411.812 145.441C411.812 145.198 411.362 145 410.812 145C410.262 145 409.812 145.477 409.812 146.059ZM431.312 146C430.972 146.55 431.396 147 432.253 147C433.504 147 433.849 148.431 434.001 154.25L434.19 161.5L434.557 155.542C434.759 152.265 434.665 148.552 434.349 147.292C433.746 144.89 432.362 144.302 431.312 146ZM817.562 146.963C815.016 149.443 815.412 150.45 817.989 148.05C819.187 146.934 819.974 145.849 819.739 145.64C819.504 145.43 818.524 146.025 817.562 146.963ZM648.017 147.625C647.311 148.381 647.088 149.014 647.523 149.03C647.957 149.047 647.521 149.521 646.554 150.085C645.587 150.648 644.237 150.773 643.554 150.362C642.685 149.84 642.713 150.111 643.649 151.266C644.555 152.383 645.362 152.6 646.149 151.939C646.789 151.402 648.334 150.123 649.583 149.096C651.158 147.801 651.462 147.08 650.577 146.74C649.876 146.471 648.724 146.869 648.017 147.625ZM436.098 151.5C436.106 154.25 436.3 155.256 436.53 153.736C436.759 152.216 436.753 149.966 436.516 148.736C436.279 147.506 436.091 148.75 436.098 151.5ZM873.873 148.892C880.629 154.021 889.015 164.911 890.356 170.297C890.739 171.835 891.269 172.876 891.534 172.611C892.594 171.551 888.337 161.319 885.709 158.608C884.166 157.017 882.188 154.204 881.311 152.358C879.49 148.52 878.739 148.004 879.564 151.158C880.12 153.286 880.101 153.29 878.13 151.408C877.032 150.359 876.471 149.05 876.884 148.5C877.339 147.894 876.476 147.457 874.695 147.392C871.787 147.285 871.778 147.302 873.873 148.892ZM444.812 148.833C444.812 149.475 444.137 150 443.312 150C442.487 150 441.812 150.693 441.812 151.539C441.812 152.774 442.241 152.678 443.989 151.05C445.187 149.934 445.862 148.716 445.489 148.344C445.117 147.971 444.812 148.192 444.812 148.833ZM809.729 154.083C808.583 155.229 807.903 156.425 808.219 156.74C808.534 157.055 809.9 156.118 811.254 154.657C814.144 151.538 812.785 151.027 809.729 154.083ZM438.323 155.623C437.378 157.066 437.099 157.941 437.703 157.567C438.857 156.854 441.186 153 440.462 153C440.231 153 439.269 154.18 438.323 155.623ZM641.319 153.989C640.969 154.555 641.37 154.723 642.26 154.382C643.992 153.717 644.309 153 642.871 153C642.353 153 641.655 153.445 641.319 153.989ZM638.684 157.75C637.441 159.336 637.476 159.371 639.062 158.128C640.728 156.821 641.257 156 640.434 156C640.227 156 639.439 156.787 638.684 157.75ZM833.406 166.939C830.634 168.757 830.622 168.805 832.772 169.487C833.977 169.87 835.229 169.917 835.554 169.591C835.879 169.266 835.283 168.971 834.229 168.937C832.681 168.885 832.793 168.677 834.812 167.854C837.913 166.59 854.463 166.691 856.682 167.987C858.044 168.783 858.066 168.951 856.812 169.013C855.987 169.054 857.08 169.718 859.241 170.487C863.501 172.005 864.443 173.163 866.984 180C867.904 182.475 868.682 183.6 868.713 182.5C868.808 179.047 865.245 172.64 861.204 169C857.324 165.506 857.301 165.5 846.774 165.293C837.96 165.119 835.767 165.389 833.406 166.939ZM799.975 168.652C799.239 169.45 798.888 170.754 799.193 171.551C799.499 172.348 799.313 173 798.781 173C798.248 173 797.812 173.9 797.812 175C797.812 178.696 799.465 177.044 800.562 172.251C801.159 169.64 801.573 167.435 801.48 167.352C801.388 167.269 800.71 167.854 799.975 168.652ZM826.812 173C825.637 174.65 824.901 176 825.176 176C825.451 176 826.637 174.65 827.812 173C828.987 171.35 829.723 170 829.448 170C829.173 170 827.987 171.35 826.812 173ZM448.389 172.94C445.163 175.067 443.061 178 444.762 178C445.34 178 445.812 177.325 445.812 176.5C445.812 175.675 446.455 175 447.241 175C448.026 175 449.313 174.356 450.1 173.569C450.888 172.782 453.282 171.957 455.422 171.737L459.312 171.336L455.312 171.175C452.811 171.074 450.216 171.735 448.389 172.94ZM465.562 171.694C467.35 171.929 468.812 172.495 468.812 172.952C468.812 173.409 469.825 174.039 471.062 174.353C472.299 174.666 474.413 176.711 475.759 178.898C477.105 181.085 478.523 182.679 478.91 182.439C479.297 182.2 480.182 184.366 480.876 187.252C481.57 190.139 482.327 191.94 482.557 191.254C483.506 188.432 479.662 180.365 475.351 176.132C471.664 172.512 470.167 171.722 466.607 171.516C464.245 171.379 463.774 171.459 465.562 171.694ZM529.081 171.693C530.054 171.947 531.404 171.93 532.081 171.656C532.758 171.382 531.962 171.175 530.312 171.195C528.662 171.215 528.108 171.439 529.081 171.693ZM544.079 171.718C545.601 171.948 546.587 172.555 546.27 173.068C545.953 173.581 546.326 174 547.097 174C549.078 174 553.207 177.992 554.597 181.25C555.241 182.762 556.173 184 556.666 184C558.372 184 559.134 190.591 559.785 211L560.439 231.5L560.615 212C560.808 190.525 559.977 185.562 555.105 179.097C553.614 177.118 552.08 175.364 551.696 175.197C551.311 175.031 549.986 174.019 548.751 172.947C547.516 171.876 545.337 171.067 543.909 171.15L541.312 171.3L544.079 171.718ZM660.625 171.683C661.346 171.972 662.209 171.936 662.541 171.604C662.873 171.272 662.283 171.036 661.229 171.079C660.064 171.127 659.827 171.364 660.625 171.683ZM682.562 171.698C683.799 171.937 684.812 172.523 684.812 172.999C684.812 173.475 685.771 174.17 686.944 174.542C688.436 175.016 688.706 175.447 687.843 175.981C687.061 176.464 687.707 176.904 689.607 177.183C691.791 177.504 692.468 177.267 692.101 176.312C691.825 175.59 691.228 175 690.776 175C690.325 175 689.252 174.297 688.394 173.439C687.535 172.58 685.365 171.739 683.572 171.57C681.779 171.401 681.325 171.458 682.562 171.698ZM524.312 173C524.652 173.55 525.353 174 525.871 174C526.389 174 526.812 173.55 526.812 173C526.812 172.45 526.11 172 525.253 172C524.396 172 523.972 172.45 524.312 173ZM654.845 173.728C653.534 175.204 653.57 175.307 655.177 174.69C656.166 174.311 657.389 174 657.894 174C658.399 174 658.812 173.55 658.812 173C658.812 171.458 656.48 171.887 654.845 173.728ZM518.74 178.046C515.115 182.324 512.89 186.513 512.92 189C512.937 190.381 515.021 186.502 515.223 184.714C515.272 184.281 515.784 183.606 516.36 183.214C516.937 182.821 518.49 180.925 519.812 179C521.134 177.075 522.687 175.169 523.264 174.765C523.989 174.257 523.981 174.026 523.24 174.015C522.65 174.007 520.625 175.821 518.74 178.046ZM378.611 190.501C378.447 199.027 378.649 206.002 379.062 206.001C379.475 206.001 379.812 199.025 379.812 190.5C379.812 181.975 379.609 175 379.361 175C379.113 175 378.775 181.976 378.611 190.501ZM651.812 176C651.812 176.55 652.289 177 652.871 177C653.453 177 653.652 176.55 653.312 176C652.972 175.45 652.496 175 652.253 175C652.01 175 651.812 175.45 651.812 176ZM645.995 181.05C640.887 186.366 635.95 196.338 635.356 202.541L634.881 207.5L635.923 202.25C636.496 199.363 637.428 197 637.995 197C638.562 197 638.767 196.325 638.45 195.5C638.134 194.675 638.311 194 638.843 194C639.376 194 639.812 193.363 639.812 192.583C639.812 191.804 641.049 190.196 642.562 189.009C644.075 187.823 644.75 187.137 644.062 187.485C642.536 188.258 642.477 187.494 643.862 184.906C644.44 183.827 645.409 183.251 646.017 183.627C646.665 184.027 646.839 183.853 646.439 183.205C646.063 182.597 646.616 181.64 647.666 181.078C649.364 180.169 651.425 177 650.318 177C650.08 177 648.135 178.822 645.995 181.05ZM694.126 179.974C694.292 181.06 694.811 182.298 695.28 182.724C695.749 183.151 695.762 182.861 695.308 182.08C694.696 181.025 694.908 180.823 696.133 181.293C697.549 181.836 697.609 181.648 696.557 179.963C694.98 177.438 693.74 177.444 694.126 179.974ZM797.002 181.75L797.312 185.5L807.562 185.785C814.143 185.968 817.812 185.7 817.812 185.035C817.812 184.394 814.193 184 808.312 184H798.812V181C798.812 179.35 798.335 178 797.752 178C797.138 178 796.822 179.579 797.002 181.75ZM821.104 181.038C820.489 182.667 820.348 184 820.79 184C821.612 184 823.189 179.044 822.565 178.42C822.376 178.231 821.719 179.409 821.104 181.038ZM893.812 180.5C893.812 181.325 894.248 182 894.781 182C895.313 182 895.49 181.325 895.174 180.5C894.857 179.675 894.421 179 894.205 179C893.989 179 893.812 179.675 893.812 180.5ZM439.517 182.328C437.404 185.553 434.788 194.735 434.93 198.432C435.018 200.75 435.243 200.334 435.849 196.732C436.291 194.109 437.687 189.834 438.952 187.232C442.216 180.517 442.539 177.715 439.517 182.328ZM587.97 184C587.97 185.375 588.197 185.938 588.474 185.25C588.752 184.563 588.752 183.438 588.474 182.75C588.197 182.063 587.97 182.625 587.97 184ZM586.007 185.5C586.027 187.15 586.251 187.704 586.505 186.731C586.759 185.758 586.742 184.408 586.468 183.731C586.194 183.054 585.987 183.85 586.007 185.5ZM699.062 184.08C700.024 184.641 700.812 185.779 700.812 186.609C700.812 187.495 700.335 187.823 699.657 187.405C698.92 186.949 698.775 187.132 699.258 187.912C699.673 188.584 700.26 188.885 700.563 188.582C700.866 188.279 701.729 188.812 702.479 189.766C703.652 191.255 703.673 191.077 702.633 188.5C701.053 184.589 699.829 182.993 698.44 183.03C697.819 183.047 698.1 183.519 699.062 184.08ZM801.58 187.725C803.377 187.947 806.077 187.943 807.58 187.715C809.083 187.486 807.612 187.304 804.312 187.31C801.012 187.315 799.783 187.502 801.58 187.725ZM869.007 190.5C869.027 192.15 869.251 192.704 869.505 191.731C869.759 190.758 869.742 189.408 869.468 188.731C869.194 188.054 868.987 188.85 869.007 190.5ZM511.97 193C511.97 194.375 512.197 194.938 512.474 194.25C512.752 193.563 512.752 192.438 512.474 191.75C512.197 191.063 511.97 191.625 511.97 193ZM894.703 203.75C894.499 223.903 894.959 266.48 895.386 266.907C895.62 267.142 895.812 250.608 895.812 230.167C895.812 209.725 895.587 193 895.312 193C895.037 193 894.763 197.838 894.703 203.75ZM558.098 199.5C558.106 202.25 558.3 203.256 558.53 201.736C558.759 200.216 558.753 197.966 558.516 196.736C558.279 195.506 558.091 196.75 558.098 199.5ZM483.044 199C483.044 200.925 483.25 201.713 483.501 200.75C483.753 199.787 483.753 198.213 483.501 197.25C483.25 196.287 483.044 197.075 483.044 199ZM510.147 203.75C509.688 208.012 509.438 228.063 509.592 248.306L509.873 285.112L496.935 284.806C489.82 284.638 484.208 284.837 484.464 285.25C484.72 285.663 490.753 286 497.871 286C507.483 286 510.848 285.678 510.951 284.75C511.162 282.846 511.37 196 511.163 196C511.064 196 510.607 199.488 510.147 203.75ZM586.812 206C586.812 216.427 588.269 216.425 588.453 205.999C588.53 201.599 588.193 198 587.703 198C587.213 198 586.812 201.6 586.812 206ZM821.812 200C821.812 200.55 822.487 201 823.312 201C824.137 201 824.812 200.55 824.812 200C824.812 199.45 824.137 199 823.312 199C822.487 199 821.812 199.45 821.812 200ZM705.891 201.583C705.939 202.748 706.176 202.985 706.495 202.188C706.784 201.466 706.748 200.603 706.416 200.271C706.084 199.939 705.848 200.529 705.891 201.583ZM408.97 203C408.97 204.375 409.197 204.938 409.474 204.25C409.752 203.563 409.752 202.438 409.474 201.75C409.197 201.063 408.97 201.625 408.97 203ZM734.97 203C734.97 204.375 735.197 204.938 735.474 204.25C735.752 203.563 735.752 202.438 735.474 201.75C735.197 201.063 734.97 201.625 734.97 203ZM815.383 201.724C814.322 201.994 812.827 202.842 812.061 203.608C810.381 205.288 808.406 205.465 809.407 203.845C809.853 203.124 809.681 202.963 808.95 203.415C808.306 203.813 808.038 204.557 808.355 205.069C808.671 205.581 808.622 206.498 808.246 207.107C807.78 207.861 807.357 207.882 806.918 207.172C806.556 206.586 805.544 207.401 804.608 209.033C802.962 211.901 802.967 211.921 805.066 210.718C806.234 210.048 808.169 208.488 809.366 207.25C810.562 206.012 811.94 204.985 812.427 204.966C812.914 204.947 815.112 204.063 817.312 203C821.083 201.178 820.093 200.523 815.383 201.724ZM434.007 204.5C434.027 206.15 434.251 206.704 434.505 205.731C434.759 204.758 434.742 203.408 434.468 202.731C434.194 202.054 433.987 202.85 434.007 204.5ZM707.806 215.296L708.301 226.5L708.593 216.087C708.754 210.36 708.532 205.318 708.099 204.883C707.666 204.448 707.534 209.134 707.806 215.296ZM706.007 208.5C706.027 210.15 706.251 210.704 706.505 209.731C706.759 208.758 706.742 207.408 706.468 206.731C706.194 206.054 705.987 206.85 706.007 208.5ZM370.562 207.662C371.25 207.94 372.375 207.94 373.062 207.662C373.75 207.385 373.187 207.158 371.812 207.158C370.437 207.158 369.875 207.385 370.562 207.662ZM633.97 218C633.97 219.375 634.197 219.938 634.474 219.25C634.752 218.563 634.752 217.438 634.474 216.75C634.197 216.063 633.97 216.625 633.97 218ZM796.291 220.704C795.44 222.741 794.872 224.976 795.028 225.672C795.184 226.367 796.056 224.7 796.966 221.968C798.906 216.137 798.51 215.394 796.291 220.704ZM287.167 228.5C287.164 233.45 287.333 235.601 287.543 233.28C287.752 230.959 287.755 226.909 287.548 224.28C287.342 221.651 287.17 223.55 287.167 228.5ZM705.97 222C705.97 223.375 706.197 223.938 706.474 223.25C706.752 222.563 706.752 221.438 706.474 220.75C706.197 220.063 705.97 220.625 705.97 222ZM748.098 224.5C748.106 227.25 748.3 228.256 748.53 226.736C748.759 225.216 748.753 222.966 748.516 221.736C748.279 220.506 748.091 221.75 748.098 224.5ZM409.044 226C409.044 227.925 409.25 228.713 409.501 227.75C409.753 226.787 409.753 225.213 409.501 224.25C409.25 223.287 409.044 224.075 409.044 226ZM634.936 225.5C634.757 230.259 636.703 235.878 641.06 243.182C644.971 249.739 653.145 257.53 654.946 256.417C655.422 256.123 655.812 256.359 655.812 256.941C655.812 257.523 656.487 258 657.312 258C659.744 258 659.026 256.271 656.312 255.589C654.937 255.244 653.812 254.322 653.812 253.54C653.812 252.758 653.292 251.797 652.657 251.405C651.889 250.93 651.777 251.134 652.322 252.015C652.924 252.99 652.678 253.163 651.394 252.67C650.434 252.301 649.405 252 649.108 252C648.81 252 649.136 251.315 649.831 250.477C650.882 249.21 650.83 249.056 649.521 249.558C648.437 249.974 647.437 249.175 646.306 246.988C645.403 245.242 644.405 244.074 644.087 244.392C643.77 244.709 642.94 244.19 642.244 243.237C641.273 241.91 641.25 241.168 642.145 240.061C643.05 238.94 643.033 238.784 642.066 239.364C641.258 239.85 640.387 239.127 639.587 237.306C638.908 235.763 638.056 234.275 637.694 234C637.332 233.725 636.588 231.025 636.042 228C635.381 224.338 635.012 223.503 634.936 225.5ZM826.13 224.888C824.93 225.89 822.793 228.413 821.38 230.495C819.208 233.696 818.835 235.297 818.959 240.89L819.105 247.5L819.781 240.138C820.306 234.418 820.916 232.412 822.517 231.138C823.651 230.237 825.096 228.488 825.73 227.25C826.364 226.012 827.767 225 828.847 225C829.928 225 830.812 224.55 830.812 224C830.812 222.447 828.537 222.879 826.13 224.888ZM869.044 230C869.044 231.925 869.25 232.713 869.501 231.75C869.753 230.787 869.753 229.213 869.501 228.25C869.25 227.287 869.044 228.075 869.044 230ZM793.97 230C793.97 231.375 794.197 231.938 794.474 231.25C794.752 230.563 794.752 229.438 794.474 228.75C794.197 228.063 793.97 228.625 793.97 230ZM705.812 230C705.812 230.55 706.262 231 706.812 231C707.362 231 707.812 230.55 707.812 230C707.812 229.45 707.362 229 706.812 229C706.262 229 705.812 229.45 705.812 230ZM409.232 249.5C409.231 260.5 409.377 265.136 409.557 259.803C409.736 254.47 409.737 245.47 409.558 239.803C409.38 234.136 409.233 238.5 409.232 249.5ZM748.044 233C748.044 234.925 748.25 235.713 748.501 234.75C748.753 233.787 748.753 232.213 748.501 231.25C748.25 230.287 748.044 231.075 748.044 233ZM704.891 233.583C704.939 234.748 705.176 234.985 705.495 234.188C705.784 233.466 705.748 232.603 705.416 232.271C705.084 231.939 704.848 232.529 704.891 233.583ZM791.812 235C791.812 236.824 792.227 237.862 792.812 237.5C793.362 237.16 793.812 236.035 793.812 235C793.812 233.965 793.362 232.84 792.812 232.5C792.227 232.138 791.812 233.176 791.812 235ZM867.948 235.384C867.873 236.42 867.274 239.062 866.617 241.255C865.701 244.314 865.275 244.819 864.785 243.424C864.212 241.79 864.09 241.829 863.573 243.805C863.257 245.014 863.407 245.751 863.905 245.442C865.391 244.524 864.932 246.655 863.364 247.957C862.568 248.618 860.966 250.81 859.804 252.829L857.692 256.5L861.166 252.789C864.96 248.735 869.151 238.899 868.496 235.585C868.141 233.787 868.066 233.759 867.948 235.384ZM703.062 238.732C701.283 242.528 701.521 244.082 703.346 240.583C704.182 238.978 704.742 237.305 704.59 236.865C704.437 236.425 703.75 237.265 703.062 238.732ZM821.064 241.5C821.075 243.7 821.28 244.482 821.519 243.238C821.758 241.994 821.749 240.194 821.499 239.238C821.249 238.282 821.053 239.3 821.064 241.5ZM697.312 247C696.972 247.55 697.171 248 697.753 248C698.335 248 698.812 247.55 698.812 247C698.812 246.45 698.614 246 698.371 246C698.128 246 697.652 246.45 697.312 247ZM820.36 251.5C820.686 253.15 821.332 254.888 821.796 255.363C823.023 256.621 824.821 255.187 824.164 253.474C823.855 252.669 823.196 252.263 822.699 252.57C822.202 252.877 821.339 252.087 820.781 250.814C819.876 248.751 819.83 248.826 820.36 251.5ZM791.812 253C791.812 254.65 792.242 256 792.767 256C793.292 256 794.021 257.596 794.387 259.547C794.753 261.497 795.254 262.891 795.501 262.644C795.749 262.397 795.411 259.451 794.751 256.097C793.489 249.679 791.812 247.913 791.812 253ZM381.562 251.706C382.799 251.944 384.825 251.944 386.062 251.706C387.299 251.467 386.287 251.272 383.812 251.272C381.337 251.272 380.325 251.467 381.562 251.706ZM690.562 254.195C689.427 255.366 689.251 255.995 690.062 255.985C692.107 255.96 693.758 254.523 693.009 253.419C692.569 252.77 691.666 253.057 690.562 254.195ZM317.31 254.003C316.91 254.651 321.883 254.954 331.503 254.869C343.386 254.764 345.126 254.586 340.312 253.968C331.486 252.835 318.019 252.855 317.31 254.003ZM358.812 253.992C358.812 254.438 365.202 254.867 373.013 254.946C386.721 255.084 390.618 255.886 389.146 258.268C388.792 258.841 388.981 259.013 389.568 258.651C390.154 258.288 390.549 257.431 390.445 256.746C389.901 253.165 388.824 252.927 373.731 253.055C365.525 253.124 358.812 253.546 358.812 253.992ZM685.812 257C685.812 257.55 686.262 258 686.812 258C687.362 258 687.812 257.55 687.812 257C687.812 256.45 687.362 256 686.812 256C686.262 256 685.812 256.45 685.812 257ZM823.812 256.5C823.812 256.775 824.824 258.012 826.061 259.25C827.956 261.146 829.614 261.556 836.599 261.854C846.8 262.29 852.643 261.397 850.817 259.68C849.851 258.772 849.457 258.788 849.104 259.75C848.535 261.302 830.812 261.544 830.812 260C830.812 259.45 829.898 259 828.781 259C827.663 259 826.49 258.325 826.174 257.5C825.644 256.121 823.812 255.345 823.812 256.5ZM854.415 257.167C854.698 257.625 854.153 258 853.204 258C852.255 258 851.745 258.266 852.07 258.591C852.834 259.355 856.812 258.104 856.812 257.099C856.812 256.678 856.157 256.333 855.356 256.333C854.555 256.333 854.132 256.708 854.415 257.167ZM659.812 258.025C659.812 258.561 660.712 259 661.812 259C662.912 259 663.812 259.45 663.812 260C663.812 260.583 667.145 261 671.812 261C676.479 261 679.812 260.583 679.812 260C679.812 259.423 676.667 259 672.377 259C668.288 259 663.788 258.561 662.377 258.025C660.71 257.391 659.812 257.391 659.812 258.025ZM668.58 257.725C670.377 257.947 673.077 257.943 674.58 257.715C676.083 257.486 674.612 257.304 671.312 257.31C668.012 257.315 666.783 257.502 668.58 257.725ZM681.625 258.683C682.346 258.972 683.209 258.936 683.541 258.604C683.873 258.272 683.283 258.036 682.229 258.079C681.064 258.127 680.827 258.364 681.625 258.683ZM833.562 258.662C834.25 258.94 835.375 258.94 836.062 258.662C836.75 258.385 836.187 258.158 834.812 258.158C833.437 258.158 832.875 258.385 833.562 258.662ZM560.167 268.5C560.164 273.45 560.333 275.601 560.543 273.28C560.752 270.959 560.755 266.909 560.548 264.28C560.342 261.651 560.17 263.55 560.167 268.5ZM287.044 266C287.044 267.925 287.25 268.712 287.501 267.75C287.753 266.788 287.753 265.212 287.501 264.25C287.25 263.288 287.044 264.075 287.044 266ZM795.838 264.185C795.824 264.562 796.337 266.137 796.978 267.685C797.62 269.233 798.19 270.725 798.245 271C798.557 272.551 804.665 278.964 807.77 281C809.028 281.825 810.623 283.04 811.314 283.701C812.005 284.361 813.862 285.188 815.441 285.538C817.623 286.022 816.872 285.231 812.312 282.241C805.439 277.734 803.975 276.231 799.27 268.847C797.396 265.906 795.852 263.808 795.838 264.185ZM558.007 268.5C558.027 270.15 558.251 270.704 558.505 269.731C558.759 268.758 558.742 267.408 558.468 266.731C558.194 266.054 557.987 266.85 558.007 268.5ZM869.812 268.393C869.812 269.159 869.108 270.056 868.249 270.386C867.389 270.716 866.995 271.487 867.374 272.1C867.857 272.882 868.318 272.809 868.922 271.857C869.448 271.026 869.787 273.267 869.797 277.643C869.809 283.224 870.158 284.919 871.394 285.393C873.674 286.268 894.606 286.142 895.16 285.25C895.417 284.837 890.651 284.642 884.569 284.815C876.244 285.052 873.304 284.805 872.677 283.815C872.218 283.092 871.836 279.012 871.827 274.75C871.818 270.26 871.391 267 870.812 267C870.262 267 869.812 267.627 869.812 268.393ZM633.97 271C633.97 272.375 634.197 272.938 634.474 272.25C634.752 271.563 634.752 270.438 634.474 269.75C634.197 269.063 633.97 269.625 633.97 271ZM636.5 270.646C635.283 271.862 635.765 273.768 637.453 274.416C638.836 274.946 638.892 274.802 637.812 273.5C636.722 272.186 636.796 272.057 638.307 272.636C639.546 273.112 639.949 272.91 639.636 271.972C639.103 270.373 637.465 269.681 636.5 270.646ZM863.453 273.031C862.488 274.664 861.387 276.01 861.005 276.023C860.624 276.036 858.512 277.673 856.312 279.661C853.117 282.549 852.79 283.126 854.687 282.531C856.47 281.972 856.868 282.101 856.283 283.047C855.787 283.85 855.907 284.059 856.614 283.622C857.225 283.245 857.461 282.249 857.138 281.408C856.756 280.412 857.27 279.693 858.615 279.341C860.523 278.842 866.436 271.29 865.584 270.439C865.377 270.231 864.418 271.398 863.453 273.031ZM410.14 278.5C410.145 282.35 410.325 283.802 410.542 281.728C410.758 279.653 410.755 276.503 410.534 274.728C410.313 272.952 410.136 274.65 410.14 278.5ZM639.812 273.845C639.812 274.31 640.712 275.505 641.812 276.5C642.912 277.495 643.812 277.997 643.812 277.616C643.812 277.234 644.375 277.397 645.062 277.979C649.858 282.038 651.276 283 652.465 283C653.206 283 653.812 283.414 653.812 283.921C653.812 284.427 655.162 285.138 656.812 285.5C658.462 285.862 659.812 286.573 659.812 287.079C659.812 287.586 660.937 288 662.312 288C663.687 288 664.812 287.55 664.812 287C664.812 286.45 664.007 286 663.023 286C660.019 286 653.351 282.362 645.154 276.25C640.547 272.816 639.812 272.484 639.812 273.845ZM388.98 280.241L388.812 284.981L339.562 285.25L290.312 285.519L339.593 285.76C394.066 286.025 390.286 286.51 389.547 279.355C389.167 275.686 389.14 275.728 388.98 280.241ZM286.891 281.583C286.939 282.748 287.176 282.985 287.495 282.188C287.784 281.466 287.748 280.603 287.416 280.271C287.084 279.939 286.848 280.529 286.891 281.583ZM588.007 282.5C588.027 284.15 588.251 284.704 588.505 283.731C588.759 282.758 588.742 281.408 588.468 280.731C588.194 280.054 587.987 280.85 588.007 282.5ZM634.97 282C634.97 283.375 635.197 283.938 635.474 283.25C635.752 282.563 635.752 281.438 635.474 280.75C635.197 280.063 634.97 280.625 634.97 282ZM561.068 284C561.398 285.213 563.895 285.553 574.144 285.78C581.111 285.934 586.813 285.709 586.813 285.28C586.814 284.851 581.352 284.652 574.676 284.837C565.377 285.095 562.318 284.861 561.599 283.837C560.85 282.771 560.742 282.804 561.068 284ZM748.068 284C748.399 285.218 750.95 285.552 761.644 285.779C768.886 285.932 774.813 285.707 774.813 285.279C774.814 284.851 769.127 284.651 762.175 284.835C752.471 285.091 749.317 284.859 748.597 283.835C747.851 282.773 747.743 282.807 748.068 284ZM848.845 284.728C847.534 286.204 847.57 286.307 849.177 285.69C850.166 285.311 851.164 285 851.394 285C851.624 285 851.812 284.55 851.812 284C851.812 282.529 850.515 282.847 848.845 284.728ZM417.601 285.741C421.06 285.937 426.46 285.936 429.601 285.738C432.742 285.54 429.912 285.38 423.312 285.382C416.712 285.384 414.142 285.546 417.601 285.741ZM686.812 287C686.812 287.55 687.487 288 688.312 288C689.137 288 689.812 287.55 689.812 287C689.812 286.45 689.137 286 688.312 286C687.487 286 686.812 286.45 686.812 287ZM818.812 287C818.812 287.55 819.487 288 820.312 288C821.137 288 821.812 287.55 821.812 287C821.812 286.45 821.137 286 820.312 286C819.487 286 818.812 286.45 818.812 287ZM843.812 287C843.812 287.55 844.262 288 844.812 288C845.362 288 845.812 287.55 845.812 287C845.812 286.45 845.362 286 844.812 286C844.262 286 843.812 286.45 843.812 287ZM294.062 287.716C295.574 287.945 298.05 287.945 299.562 287.716C301.074 287.487 299.837 287.3 296.812 287.3C293.787 287.3 292.55 287.487 294.062 287.716ZM376.588 287.733C378.94 287.945 382.54 287.942 384.588 287.727C386.636 287.512 384.712 287.339 380.312 287.343C375.912 287.346 374.236 287.522 376.588 287.733ZM419.062 287.735C421.674 287.941 425.95 287.941 428.562 287.735C431.174 287.529 429.037 287.36 423.812 287.36C418.587 287.36 416.45 287.529 419.062 287.735ZM489.076 287.718C490.596 287.947 492.846 287.941 494.076 287.704C495.306 287.467 494.062 287.279 491.312 287.286C488.562 287.294 487.556 287.488 489.076 287.718ZM505.562 287.662C506.25 287.94 507.375 287.94 508.062 287.662C508.75 287.385 508.187 287.158 506.812 287.158C505.437 287.158 504.875 287.385 505.562 287.662ZM563.562 287.662C564.25 287.94 565.375 287.94 566.062 287.662C566.75 287.385 566.187 287.158 564.812 287.158C563.437 287.158 562.875 287.385 563.562 287.662ZM581.574 287.707C582.818 287.946 584.618 287.937 585.574 287.687C586.53 287.437 585.512 287.241 583.312 287.252C581.112 287.263 580.33 287.468 581.574 287.707ZM611.812 287.901C611.812 288.754 630.832 288.282 631.729 287.407C631.958 287.183 627.57 287 621.979 287C616.387 287 611.812 287.405 611.812 287.901ZM668.339 288.043C668.664 288.569 671.228 289 674.038 289C680.378 289 679.971 288.468 673.03 287.683C669.771 287.315 667.974 287.453 668.339 288.043ZM750.362 287.768C750.884 288.19 756.262 288.272 762.312 287.951L773.312 287.366L761.362 287.183C754.789 287.082 749.84 287.345 750.362 287.768ZM872.362 287.794C872.884 288.231 877.137 288.307 881.812 287.963L890.312 287.338L880.862 287.169C875.664 287.076 871.839 287.357 872.362 287.794ZM828.062 288.716C829.575 288.945 832.049 288.945 833.562 288.716C835.075 288.487 833.837 288.3 830.812 288.3C827.787 288.3 826.549 288.487 828.062 288.716ZM660.625 289.683C661.346 289.972 662.209 289.936 662.541 289.604C662.873 289.272 662.283 289.036 661.229 289.079C660.064 289.127 659.827 289.364 660.625 289.683ZM824.625 290.683C825.346 290.972 826.209 290.936 826.541 290.604C826.873 290.272 826.283 290.036 825.229 290.079C824.064 290.127 823.827 290.364 824.625 290.683Z" fill="white"/>
<path fill-rule="evenodd" clip-rule="evenodd" d="M105.812 1.00011C103.984 2.18111 105.563 2.18111 108.312 1.00011C109.631 0.433114 109.801 0.122114 108.812 0.0861137C107.987 0.0551137 106.637 0.467114 105.812 1.00011ZM237.044 3.00011C237.044 4.92511 237.25 5.71311 237.501 4.75011C237.753 3.78811 237.753 2.21211 237.501 1.25011C237.25 0.288114 237.044 1.07511 237.044 3.00011ZM99.8123 3.78611C98.4373 4.71011 97.0533 5.82311 96.7373 6.26011C96.4203 6.69611 94.7903 7.15411 93.1153 7.27711C90.9443 7.43611 90.2263 7.90911 90.6143 8.92411C91.0043 9.94211 90.6683 10.1591 89.4343 9.68511C88.4853 9.32111 87.9593 9.42911 88.2663 9.92611C88.9943 11.1031 82.1573 15.3311 80.8423 14.5181C80.2543 14.1551 80.0833 14.5431 80.4303 15.4481C80.7583 16.3021 80.5973 17.0001 80.0723 17.0001C79.5473 17.0001 78.0913 17.8911 76.8363 18.9791C75.5813 20.0681 74.1673 20.7191 73.6943 20.4271C73.2223 20.1351 73.1033 20.5941 73.4303 21.4481C73.8113 22.4391 73.4663 23.0001 72.4763 23.0001C71.6233 23.0001 70.1223 24.3591 69.1413 26.0201C68.1603 27.6811 66.7853 28.8201 66.0853 28.5511C65.3853 28.2831 64.8123 28.4991 64.8123 29.0311C64.8123 29.5641 64.7303 30.3371 64.6293 30.7501C64.3503 31.8921 59.4563 35.5341 58.5813 35.2501C58.1583 35.1121 57.8123 35.5161 57.8123 36.1471C57.8123 37.1501 53.0283 43.5281 49.5033 47.2251C48.8353 47.9261 46.1963 51.3431 43.6403 54.8171C41.0833 58.2911 38.6143 61.1491 38.1523 61.1671C37.6903 61.1851 37.4293 61.6191 37.5723 62.1311C37.7163 62.6431 37.3633 63.6111 36.7883 64.2811C36.2143 64.9511 35.0513 66.4001 34.2043 67.5001C33.3573 68.6001 32.9923 68.8681 33.3923 68.0951C33.8603 67.1951 33.7233 66.9371 33.0103 67.3781C32.3993 67.7551 32.1813 68.7981 32.5263 69.6961C32.9413 70.7801 32.7633 71.0871 31.9933 70.6121C31.2153 70.1311 31.0493 70.4531 31.4863 71.5931C31.8653 72.5811 31.5223 73.7511 30.6653 74.3951C29.8563 75.0031 28.4823 77.3001 27.6143 79.5001C26.7453 81.7001 25.5723 83.5001 25.0073 83.5001C24.4413 83.5001 23.6043 83.9101 23.1453 84.4101C22.6523 84.9491 22.8823 84.9901 23.7083 84.5111C24.8233 83.8641 24.9613 84.2721 24.3923 86.5391C24.0003 88.1001 23.0853 89.8541 22.3593 90.4381C21.6333 91.0221 20.0213 94.6501 18.7773 98.5001C17.5333 102.35 16.0743 105.787 15.5353 106.138C14.9973 106.489 14.8653 107.277 15.2433 107.888C15.6213 108.5 15.4533 109 14.8713 109C14.2893 109 13.8123 109.45 13.8123 110C13.8123 113.056 15.9173 110.019 18.7263 102.91C23.6483 90.4541 26.6493 84.3351 32.9833 73.8401C36.1893 68.5271 38.8123 63.8481 38.8123 63.4411C38.8123 62.7661 45.3633 54.3361 49.6463 49.5001C50.6203 48.4001 52.5033 45.9251 53.8303 44.0001C57.8243 38.2081 76.4973 20.4981 83.8803 15.5001C86.3183 13.8501 88.9073 11.9381 89.6333 11.2501C90.3603 10.5631 91.5983 10.0001 92.3833 10.0001C93.1693 10.0001 93.8123 9.55011 93.8123 9.00011C93.8123 8.45011 94.4182 8.00011 95.1592 8.00011C95.9002 8.00011 97.5443 7.10011 98.8123 6.00011C100.08 4.90011 101.724 4.00011 102.465 4.00011C103.206 4.00011 103.812 3.55011 103.812 3.00011C103.812 1.61211 102.73 1.82411 99.8123 3.78611ZM236.084 16.0001C236.084 18.4751 236.279 19.4881 236.518 18.2501C236.756 17.0121 236.756 14.9881 236.518 13.7501C236.279 12.5121 236.084 13.5251 236.084 16.0001ZM236.891 25.5831C236.939 26.7481 237.176 26.9851 237.495 26.1881C237.784 25.4661 237.748 24.6031 237.416 24.2711C237.084 23.9391 236.848 24.5291 236.891 25.5831ZM235.044 28.0001C235.044 29.9251 235.25 30.7121 235.501 29.7501C235.753 28.7881 235.753 27.2121 235.501 26.2501C235.25 25.2881 235.044 26.0751 235.044 28.0001ZM234.007 37.5001C234.027 39.1501 234.251 39.7041 234.505 38.7311C234.759 37.7581 234.742 36.4081 234.468 35.7311C234.194 35.0541 233.987 35.8501 234.007 37.5001ZM146.574 50.7071C147.818 50.9461 149.618 50.9371 150.574 50.6871C151.53 50.4371 150.512 50.2411 148.312 50.2521C146.112 50.2631 145.33 50.4681 146.574 50.7071ZM138.812 52.0001C138.812 52.5501 139.487 53.0001 140.312 53.0001C141.137 53.0001 141.812 52.5501 141.812 52.0001C141.812 51.4501 141.137 51.0001 140.312 51.0001C139.487 51.0001 138.812 51.4501 138.812 52.0001ZM134.625 53.6831C135.346 53.9721 136.209 53.9361 136.541 53.6041C136.873 53.2721 136.283 53.0361 135.229 53.0791C134.064 53.1271 133.827 53.3641 134.625 53.6831ZM129.812 55.0001C129.812 55.5501 130.235 56.0001 130.753 56.0001C131.271 56.0001 131.972 55.5501 132.312 55.0001C132.652 54.4501 132.228 54.0001 131.371 54.0001C130.514 54.0001 129.812 54.4501 129.812 55.0001ZM124.562 56.6891C122.191 57.3091 122.333 58.9121 124.743 58.7301C125.805 58.6501 126.474 58.2621 126.23 57.8681C125.987 57.4741 126.581 56.9451 127.55 56.6921C128.669 56.4001 128.765 56.2321 127.812 56.2321C126.987 56.2321 125.524 56.4381 124.562 56.6891ZM118.562 59.6891C117.6 59.9411 116.812 60.5791 116.812 61.1091C116.812 61.6621 117.766 61.5741 119.062 60.9001C122.812 58.9491 122.674 58.6151 118.562 59.6891ZM110.841 63.9611C110.032 64.4731 109.719 65.2401 110.145 65.6671C110.572 66.0931 111.27 65.8771 111.696 65.1871C112.137 64.4731 113.3 64.2031 114.392 64.5601C115.965 65.0751 116.041 64.9941 114.812 64.1101C112.985 62.7951 112.701 62.7851 110.841 63.9611ZM102.812 70.0001C101.987 70.5331 101.762 70.9691 102.312 70.9691C102.862 70.9691 103.987 70.5331 104.812 70.0001C105.637 69.4671 105.862 69.0311 105.312 69.0311C104.762 69.0311 103.637 69.4671 102.812 70.0001ZM96.3193 75.9891C95.9693 76.5551 96.3703 76.7231 97.2603 76.3821C98.9923 75.7171 99.3093 75.0001 97.8713 75.0001C97.3533 75.0001 96.6553 75.4451 96.3193 75.9891ZM92.9833 79.0971C92.2633 80.2511 91.9303 81.4511 92.2433 81.7641C92.5563 82.0771 92.8123 81.7821 92.8123 81.1081C92.8123 80.4341 93.1693 80.1021 93.6043 80.3721C94.0403 80.6411 94.4623 79.9931 94.5423 78.9311C94.7253 76.5051 94.5933 76.5191 92.9833 79.0971ZM87.8123 83.8111C87.8123 84.2581 87.0113 85.4951 86.0323 86.5611C85.0533 87.6281 82.9203 90.2581 81.2933 92.4081C78.7293 95.7941 78.6332 96.1291 80.5732 94.9171C81.8042 94.1481 82.8123 93.1571 82.8123 92.7141C82.8123 92.2711 83.9173 90.8051 85.2673 89.4551C86.6173 88.1051 87.4473 87.0001 87.1123 87.0001C86.7763 87.0001 87.3173 86.1001 88.3123 85.0001C89.3383 83.8661 89.6223 83.0001 88.9673 83.0001C88.3323 83.0001 87.8123 83.3651 87.8123 83.8111ZM219.562 90.6621C220.25 90.9401 221.375 90.9401 222.062 90.6621C222.75 90.3851 222.187 90.1581 220.812 90.1581C219.437 90.1581 218.875 90.3851 219.562 90.6621ZM226.891 94.5831C226.939 95.7481 227.176 95.9851 227.495 95.1881C227.784 94.4661 227.748 93.6031 227.416 93.2711C227.084 92.9391 226.848 93.5291 226.891 94.5831ZM128.812 98.5621C125.297 100.481 122.921 102.143 119.914 104.786C117.542 106.871 117.666 106.85 121.312 104.55C123.512 103.163 125.797 101.627 126.389 101.136C126.981 100.646 128.444 99.9341 129.639 99.5551C130.834 99.1761 131.812 98.4461 131.812 97.9331C131.812 97.4201 131.699 97.0441 131.562 97.0981C131.425 97.1521 130.187 97.8111 128.812 98.5621ZM73.7023 103.25C72.5273 105.488 72.5323 105.49 74.6663 103.595C77.0503 101.479 77.2683 101 75.8473 101C75.3173 101 74.3513 102.013 73.7023 103.25ZM115.439 106.762C115.612 107.044 114.799 108.675 113.632 110.387L111.512 113.5L114.376 110.764C116.287 108.937 116.888 107.732 116.182 107.139C115.6 106.65 115.266 106.48 115.439 106.762ZM108.365 115.086C109.041 116.179 105.823 119.125 104.707 118.435C104.187 118.114 103.827 118.222 103.906 118.676C104.256 120.692 103.73 122.067 102.823 121.507C102.263 121.161 102.085 121.549 102.414 122.405C102.846 123.53 103.985 122.766 106.902 119.396C111.351 114.256 111.313 114.333 109.356 114.333C108.555 114.333 108.109 114.672 108.365 115.086ZM224.509 115.393C224.1 116.434 224.001 117.522 224.288 117.81C225.201 118.722 226.003 117.227 225.621 115.328C225.271 113.588 225.217 113.591 224.509 115.393ZM10.8443 121C10.1323 124.025 9.22026 126.95 8.81826 127.5C8.41526 128.05 7.79926 130.3 7.44926 132.5C7.09926 134.7 6.51727 137.583 6.15527 138.906C5.73727 140.434 5.87027 141.082 6.51727 140.682C7.07827 140.335 8.03826 138.127 8.65026 135.776C11.5883 124.477 12.9413 117.889 12.5593 116.75C12.3273 116.063 11.5563 117.975 10.8443 121ZM65.0663 119.139C64.7583 120.315 63.5023 123.166 62.2753 125.474C61.0473 127.782 59.8363 130.983 59.5833 132.586C59.3293 134.188 59.3113 134.932 59.5433 134.238C59.7743 133.544 60.3173 133.194 60.7503 133.462C61.1823 133.729 61.4673 132.947 61.3823 131.724C61.2983 130.501 61.7933 128.593 62.4823 127.484C64.1173 124.854 66.8833 117 66.1743 117C65.8723 117 65.3733 117.962 65.0663 119.139ZM99.9293 126.781C99.2563 128.039 98.2183 128.751 97.6073 128.373C96.9723 127.981 96.7843 128.146 97.1653 128.762C98.0833 130.247 96.0423 135.26 94.8253 134.508C94.2433 134.149 94.0963 134.578 94.4693 135.549C94.8183 136.458 94.6553 137.494 94.1073 137.851C93.5583 138.208 91.8933 142.325 90.4073 147C88.9203 151.675 87.3153 156.221 86.8413 157.103C86.3673 157.985 85.6923 160.91 85.3413 163.603C84.4053 170.798 86.4273 166.96 88.3243 157.944C89.9213 150.35 96.2283 135.033 99.8543 129.941C101.017 128.307 101.784 126.416 101.558 125.738C101.311 124.996 100.663 125.41 99.9293 126.781ZM222.812 131.667C222.812 133.683 223.143 135.002 223.548 134.598C224.614 133.531 224.738 128 223.695 128C223.209 128 222.812 129.65 222.812 131.667ZM56.8913 141.583C56.9393 142.748 57.1763 142.985 57.4953 142.188C57.7843 141.466 57.7483 140.603 57.4163 140.271C57.0843 139.939 56.8483 140.529 56.8913 141.583ZM4.97027 144C4.97027 145.375 5.19727 145.938 5.47427 145.25C5.75227 144.563 5.75227 143.438 5.47427 142.75C5.19727 142.063 4.97027 142.625 4.97027 144ZM222.044 146C222.044 147.925 222.25 148.713 222.501 147.75C222.753 146.787 222.753 145.213 222.501 144.25C222.25 143.287 222.044 144.075 222.044 146ZM55.8913 146.583C55.9393 147.748 56.1763 147.985 56.4953 147.188C56.7843 146.466 56.7483 145.603 56.4163 145.271C56.0843 144.939 55.8483 145.529 55.8913 146.583ZM4.00727 151.5C4.02727 153.15 4.25126 153.704 4.50526 152.731C4.75926 151.758 4.74227 150.408 4.46827 149.731C4.19427 149.054 3.98727 149.85 4.00727 151.5ZM154.312 152.691C151.154 153.102 144.812 156.024 144.812 157.067C144.812 157.404 143.702 158.185 142.345 158.803C139.988 159.877 133.812 167.366 133.812 169.15C133.812 171.088 135.643 169.809 136.233 167.459C136.619 165.922 137.315 165.193 137.996 165.614C138.627 166.004 138.846 165.864 138.494 165.295C137.696 164.003 143.547 158.718 144.871 159.536C145.416 159.873 145.738 159.553 145.587 158.824C145.436 158.096 145.908 157.624 146.636 157.775C147.365 157.926 147.707 157.64 147.398 157.138C146.675 155.97 150.195 155.031 155.362 155.014C157.59 155.006 159.85 154.562 160.386 154.026C160.922 153.49 168.774 152.916 177.836 152.749L194.312 152.447L175.812 152.373C165.637 152.333 155.962 152.476 154.312 152.691ZM201.062 152.742C204.774 152.934 210.85 152.934 214.562 152.742C218.274 152.549 215.237 152.392 207.812 152.392C200.387 152.392 197.35 152.549 201.062 152.742ZM3.00727 157.5C3.02727 159.15 3.25126 159.704 3.50526 158.731C3.75926 157.758 3.74227 156.408 3.46827 155.731C3.19427 155.054 2.98727 155.85 3.00727 157.5ZM170.625 155.683C171.346 155.972 172.209 155.936 172.541 155.604C172.873 155.272 172.283 155.036 171.229 155.079C170.064 155.127 169.827 155.364 170.625 155.683ZM212.076 155.718C213.596 155.947 215.846 155.941 217.076 155.704C218.306 155.467 217.062 155.279 214.312 155.286C211.562 155.294 210.556 155.488 212.076 155.718ZM1.81426 166C0.996264 168.632 1.08027 170.132 1.99427 169.218C2.56827 168.644 2.79726 167.573 2.50326 166.838C2.21026 166.102 1.90026 165.725 1.81426 166ZM96.5623 171.747C103.3 171.92 114.324 171.92 121.062 171.747C127.8 171.574 122.287 171.432 108.812 171.432C95.3373 171.432 89.8243 171.574 96.5623 171.747ZM99.0623 174.728C101.125 174.944 104.5 174.944 106.562 174.728C108.625 174.513 106.937 174.336 102.812 174.336C98.6873 174.336 97.0003 174.513 99.0623 174.728ZM114.062 174.728C116.125 174.944 119.5 174.944 121.562 174.728C123.625 174.513 121.937 174.336 117.812 174.336C113.687 174.336 112 174.513 114.062 174.728ZM1.73826 215.75C1.69726 216.162 1.47827 217.49 1.25227 218.7C1.02527 219.909 1.28427 221.173 1.82627 221.509C2.40327 221.866 2.81226 220.643 2.81226 218.559C2.81226 216.602 2.58726 215 2.31226 215C2.03726 215 1.77926 215.338 1.73826 215.75ZM84.8913 219.849C84.8483 220.591 85.4323 222.616 86.1893 224.349C86.9463 226.082 88.8253 231.438 90.3653 236.25C91.9053 241.063 93.5883 245 94.1053 245C94.6223 245 94.8243 245.848 94.5533 246.884C94.2613 247.998 94.8613 249.453 96.0193 250.445C97.0983 251.369 97.7223 252.793 97.4073 253.614C97.0923 254.433 97.2123 254.871 97.6733 254.586C98.4813 254.086 100.002 256.545 101.214 260.313C101.56 261.386 102.278 261.83 102.975 261.399C103.777 260.904 103.942 261.219 103.493 262.388C103.131 263.332 103.231 263.859 103.714 263.561C104.198 263.262 105.396 264.251 106.377 265.759C107.359 267.266 108.871 269.096 109.737 269.824C110.707 270.64 110.773 270.869 109.907 270.42C108.984 269.941 108.747 270.086 109.217 270.845C109.609 271.48 110.588 272 111.392 272C112.197 272 113.361 273.111 113.98 274.469C114.598 275.826 115.489 276.7 115.958 276.41C116.428 276.119 116.812 276.286 116.812 276.78C116.812 277.275 117.937 278.192 119.312 278.818C120.687 279.445 121.812 280.668 121.812 281.538C121.812 282.407 122.232 282.858 122.746 282.541C123.738 281.928 132.081 285.859 132.645 287.205C132.829 287.642 133.643 288 134.454 288C135.266 288 135.678 288.408 135.37 288.907C135.061 289.405 135.811 289.552 137.035 289.231C138.601 288.822 138.824 288.509 137.786 288.175C136.975 287.914 136.087 287.43 135.812 287.1C135.062 286.2 131.613 284.125 128.987 282.994C127.708 282.443 126.075 281.431 125.359 280.746C124.643 280.061 123.007 278.825 121.723 278C117.891 275.538 104.869 261.804 102.286 257.5C96.9953 248.685 90.8833 235.437 89.2073 229.149C88.2323 225.492 87.1373 222.275 86.7733 222C86.4103 221.725 85.8553 220.825 85.5413 220C85.1233 218.901 84.9493 218.861 84.8913 219.849ZM51.8123 223.941C51.8123 224.459 52.1873 225.114 52.6453 225.397C53.1043 225.68 53.4793 225.257 53.4793 224.456C53.4793 223.655 53.1043 223 52.6453 223C52.1873 223 51.8123 223.423 51.8123 223.941ZM3.04426 229C3.04426 230.925 3.25026 231.713 3.50126 230.75C3.75326 229.787 3.75326 228.213 3.50126 227.25C3.25026 226.287 3.04426 227.075 3.04426 229ZM187.562 229.662C188.25 229.94 189.375 229.94 190.062 229.662C190.75 229.385 190.187 229.158 188.812 229.158C187.437 229.158 186.875 229.385 187.562 229.662ZM193.562 229.662C194.25 229.94 195.375 229.94 196.062 229.662C196.75 229.385 196.187 229.158 194.812 229.158C193.437 229.158 192.875 229.385 193.562 229.662ZM3.89126 237.583C3.93926 238.748 4.17626 238.985 4.49526 238.188C4.78426 237.466 4.74827 236.603 4.41627 236.271C4.08427 235.939 3.84826 236.529 3.89126 237.583ZM4.86027 243.668C4.83327 244.861 4.54527 246.661 4.21827 247.668C3.77627 249.028 3.87127 249.153 4.58627 248.154C5.27327 247.193 5.93127 248.767 6.88427 253.654C7.61827 257.419 8.11627 260.871 7.99127 261.324C7.86527 261.778 8.22427 261.864 8.78727 261.515C9.35127 261.167 9.81227 261.128 9.81227 261.428C9.81227 263.305 15.0113 281.513 15.6733 281.957C16.8813 282.766 18.8723 289.094 18.2413 290.115C17.9403 290.602 18.0873 291 18.5663 291C19.0463 291 20.0573 292.575 20.8123 294.5C21.5673 296.425 22.6043 298 23.1153 298C23.6273 298 23.8103 298.901 23.5223 300.001C23.1893 301.275 23.3903 301.761 24.0753 301.337C24.7563 300.916 24.9173 301.283 24.5133 302.336C24.1623 303.251 24.3373 304 24.9023 304C25.4683 304 25.6093 304.52 25.2173 305.155C24.7983 305.832 24.9403 306.039 25.5603 305.656C26.1563 305.287 27.0733 306.311 27.6633 308.001C28.2383 309.651 29.2343 311 29.8773 311C30.5533 311 30.8253 311.843 30.5223 313.001C30.2343 314.102 30.3123 314.809 30.6953 314.572C31.0783 314.336 32.4873 316.248 33.8273 318.821C35.1673 321.395 36.7243 323.831 37.2883 324.235C37.9493 324.709 37.9583 324.98 37.3123 325C36.7543 325.017 36.8103 325.355 37.4413 325.765C39.6603 327.21 45.8603 336.113 45.2903 337.036C44.9603 337.569 45.4513 337.692 46.4213 337.32C47.7973 336.792 48.0223 337.089 47.5663 338.833C47.2543 340.026 47.4073 340.75 47.9073 340.441C48.8563 339.855 55.0863 346.059 54.3193 346.826C54.0773 347.068 54.9943 348.142 56.3553 349.213C57.7173 350.284 58.5783 351.569 58.2703 352.069C57.9613 352.568 58.4803 352.681 59.4243 352.319C60.6803 351.836 60.9213 352.015 60.3223 352.985C59.7393 353.926 59.8863 354.073 60.8273 353.49C61.7973 352.891 61.9763 353.132 61.4933 354.388C61.1313 355.332 61.2213 355.865 61.6933 355.574C62.1653 355.282 63.8473 356.211 65.4323 357.639C67.0163 359.067 67.6373 359.885 66.8123 359.457C65.9263 358.998 65.6533 359.052 66.1453 359.59C66.6043 360.09 67.3253 360.5 67.7493 360.5C68.7743 360.5 73.3893 363.885 76.6703 367.044C78.1233 368.444 80.7743 370.186 82.5623 370.916C84.3503 371.645 85.8123 372.586 85.8123 373.005C85.8123 373.424 86.7573 374.014 87.9133 374.316C89.1023 374.627 89.7203 375.339 89.3383 375.957C88.9673 376.558 89.0343 376.965 89.4883 376.861C91.0173 376.51 96.2823 378.327 97.6243 379.669C98.3563 380.401 99.7103 381.007 100.633 381.015C101.932 381.027 102.011 381.222 100.981 381.875C100.083 382.444 101.021 382.938 103.864 383.392C106.182 383.763 108.289 383.856 108.546 383.6C108.803 383.343 106.155 381.722 102.662 379.998C92.6503 375.054 90.3363 373.749 89.9793 372.845C89.7953 372.38 89.1913 372 88.6363 372C88.0813 372 86.5963 371.212 85.3353 370.25C84.0753 369.288 82.0363 367.825 80.8053 367C79.5743 366.175 78.0493 365.05 77.4153 364.5C76.7823 363.95 73.3503 361.066 69.7883 358.09C51.1773 342.542 36.2023 322.441 23.5353 296C18.8853 286.294 12.2553 267.648 9.31426 256C6.96326 246.691 4.91827 241.03 4.86027 243.668ZM212.97 244C212.97 245.375 213.197 245.938 213.474 245.25C213.752 244.563 213.752 243.438 213.474 242.75C213.197 242.063 212.97 242.625 212.97 244ZM211.891 252.583C211.939 253.748 212.176 253.985 212.495 253.188C212.784 252.466 212.748 251.603 212.416 251.271C212.084 250.939 211.848 251.529 211.891 252.583ZM60.3123 255C60.6523 255.55 61.1283 256 61.3713 256C61.6143 256 61.8123 255.55 61.8123 255C61.8123 254.45 61.3353 254 60.7533 254C60.1713 254 59.9723 254.45 60.3123 255ZM210.522 262C210.235 263.1 210.407 264 210.906 264C211.404 264 211.812 263.1 211.812 262C211.812 260.9 211.639 260 211.429 260C211.218 260 210.81 260.9 210.522 262ZM208.928 270.809C208.852 273.634 209.18 274.891 209.88 274.458C210.468 274.095 210.707 273.168 210.412 272.399C210.116 271.629 210.311 271 210.843 271C211.376 271 211.805 270.212 211.797 269.25C211.784 267.85 211.605 267.779 210.898 268.895C210.188 270.016 209.919 269.918 209.529 268.395C209.262 267.353 208.992 268.439 208.928 270.809ZM71.5143 278.667C71.7963 279.4 72.1553 280 72.3123 280C72.4693 280 72.8283 279.4 73.1103 278.667C73.3913 277.933 73.0323 277.333 72.3123 277.333C71.5923 277.333 71.2333 277.933 71.5143 278.667ZM208.064 281.5C208.075 283.7 208.28 284.482 208.519 283.238C208.758 281.994 208.749 280.194 208.499 279.238C208.249 278.282 208.053 279.3 208.064 281.5ZM75.5153 285.402C76.5033 286.723 77.4613 287.662 77.6433 287.488C78.2673 286.891 75.7423 283 74.7303 283C74.1743 283 74.5273 284.081 75.5153 285.402ZM207.007 288.5C207.027 290.15 207.251 290.704 207.505 289.731C207.759 288.758 207.742 287.408 207.468 286.731C207.194 286.054 206.987 286.85 207.007 288.5ZM140.312 290C140.652 290.55 141.353 291 141.871 291C142.389 291 142.812 290.55 142.812 290C142.812 289.45 142.11 289 141.253 289C140.396 289 139.972 289.45 140.312 290ZM187.14 293.241C190.593 293.959 192.287 293.925 193.09 293.122C193.919 292.293 192.661 292.031 188.262 292.118L182.312 292.236L187.14 293.241ZM87.8293 300.563C87.8513 301.767 92.7273 306.418 93.3333 305.812C93.5853 305.56 92.4463 304.065 90.8023 302.49C89.1573 300.915 87.8203 300.048 87.8293 300.563ZM94.8123 307.893C94.8123 308.384 95.5513 309.069 96.4533 309.416C97.8263 309.943 97.8883 309.796 96.8313 308.523C95.3913 306.788 94.8123 306.607 94.8123 307.893ZM101.812 314.059C101.812 314.641 102.262 314.84 102.812 314.5C103.362 314.16 103.812 313.684 103.812 313.441C103.812 313.198 103.362 313 102.812 313C102.262 313 101.812 313.477 101.812 314.059ZM105.023 316.399C105.732 317.169 106.47 317.649 106.662 317.466C107.255 316.902 105.752 315 104.714 315C104.174 315 104.313 315.63 105.023 316.399ZM124.545 327.124C125.224 327.808 126.031 328.115 126.338 327.807C126.646 327.499 126.091 326.94 125.105 326.564C123.68 326.022 123.565 326.136 124.545 327.124ZM133.312 330C132.972 330.55 133.171 331 133.753 331C134.335 331 134.812 330.55 134.812 330C134.812 329.45 134.614 329 134.371 329C134.128 329 133.652 329.45 133.312 330ZM199.891 356.583C199.939 357.748 200.176 357.985 200.495 357.188C200.784 356.466 200.748 355.603 200.416 355.271C200.084 354.939 199.848 355.529 199.891 356.583ZM198.97 368C198.97 369.375 199.197 369.938 199.474 369.25C199.752 368.563 199.752 367.438 199.474 366.75C199.197 366.063 198.97 366.625 198.97 368ZM197.459 377.704C195.252 388.11 194.528 393.05 195.125 393.646C196.374 394.895 196.837 393.387 197.916 384.568C198.948 376.128 198.673 371.984 197.459 377.704ZM109.812 384.477C109.812 384.739 111.681 385.856 113.966 386.96C119.026 389.405 124.812 390.612 124.812 389.223C124.812 388.673 123.256 387.931 121.354 387.574C119.452 387.217 116.64 386.27 115.104 385.469C112.343 384.028 109.812 383.554 109.812 384.477ZM127.081 390.693C128.054 390.947 129.404 390.93 130.081 390.656C130.758 390.382 129.962 390.175 128.312 390.195C126.662 390.215 126.108 390.439 127.081 390.693ZM131.812 391.858C131.812 392.85 141.979 394.061 148.709 393.869C153.216 393.741 153.186 393.722 147.312 392.97C144.012 392.548 140.975 392.409 140.562 392.66C140.149 392.912 139.812 392.641 139.812 392.059C139.812 391.477 138.012 391 135.812 391C133.612 391 131.812 391.386 131.812 391.858ZM158.312 395C162.936 396.177 192.812 396.177 192.812 395C192.812 394.365 185.974 394.043 174.062 394.118C163.235 394.187 156.58 394.559 158.312 395ZM145.076 395.718C146.596 395.947 148.846 395.941 150.076 395.704C151.306 395.467 150.062 395.279 147.312 395.286C144.562 395.294 143.556 395.488 145.076 395.718Z" fill="white"/>
</svg>
